<svg xmlns="http://www.w3.org/2000/svg" width="31.017" height="31.016" viewBox="0 0 31.017 31.016"><defs><style>.a{fill:#fff;fill-rule:evenodd;}</style></defs><path class="a" d="M96.944,83.438H86.47a3.035,3.035,0,0,0-3.032,3.032V96.943a3.035,3.035,0,0,0,3.032,3.032H96.944a3.036,3.036,0,0,0,3.032-3.032V86.47A3.035,3.035,0,0,0,96.944,83.438ZM91.707,97.15a5.444,5.444,0,1,1,5.444-5.444A5.45,5.45,0,0,1,91.707,97.15Zm5.619-9.762A1.288,1.288,0,1,1,98.614,86.1,1.29,1.29,0,0,1,97.326,87.388Z" transform="translate(-76.438 -76.438)"/><path class="a" d="M147.667,144.531a3.144,3.144,0,1,0,3.144,3.143A3.148,3.148,0,0,0,147.667,144.531Z" transform="translate(-132.399 -132.406)"/><path class="a" d="M0,0V31.016H31.017V0ZM26.244,20.827a5.422,5.422,0,0,1-5.416,5.416H10.189a5.422,5.422,0,0,1-5.416-5.416V10.189a5.422,5.422,0,0,1,5.416-5.416H20.828a5.422,5.422,0,0,1,5.416,5.416Z"/></svg>