<svg viewBox="0 0 745 241" fill="none" xmlns="http://www.w3.org/2000/svg">
<g opacity="1">
<rect width="745" height="241" fill="black" fill-opacity="0"/>
<rect width="745" height="241" fill="black" fill-opacity="0"/>
<path d="M577.92 93.7881C539.7 93.7881 508.461 124.5 507.763 162.433C507.763 162.868 507.763 163.303 507.763 163.738C507.763 173.57 499.735 181.574 489.875 181.574C475.39 181.574 463.697 193.232 463.697 207.675C463.697 222.117 475.39 233.775 489.875 233.775C528.095 233.775 559.334 203.064 560.032 165.13C560.032 164.695 560.032 164.26 560.032 163.825C560.032 153.994 568.06 145.99 577.92 145.99C592.405 145.99 604.098 134.331 604.098 119.889C604.098 105.446 592.318 93.7881 577.92 93.7881Z" fill="white" fill-opacity="1"/>
<rect width="52.3557" height="152.255" fill="black" fill-opacity="0" transform="translate(397.991 88.7451)"/>
<path d="M424.169 241C409.684 241 397.991 229.342 397.991 214.899V114.846C397.991 100.403 409.684 88.7451 424.169 88.7451C438.654 88.7451 450.347 100.403 450.347 114.846V214.899C450.347 229.342 438.654 241 424.169 241Z" fill="white" fill-opacity="1"/>
<rect width="52.3557" height="52.2016" fill="black" fill-opacity="0" transform="translate(401.307 16.7935)"/>
<path d="M427.484 68.9951C441.942 68.9951 453.662 57.3094 453.662 42.8943C453.662 28.4792 441.942 16.7935 427.484 16.7935C413.027 16.7935 401.307 28.4792 401.307 42.8943C401.307 57.3094 413.027 68.9951 427.484 68.9951Z" fill="white" fill-opacity="1"/>
<path d="M73.8215 90.2217C45.4622 90.2217 20.855 106.23 8.46416 129.634C16.143 149.297 32.7223 164.522 53.3155 170.351C52.7047 168.35 52.3556 166.175 52.3556 163.913C52.3556 152.081 61.9542 142.51 73.8215 142.51C85.6887 142.51 95.2873 152.081 95.2873 163.913C95.2873 175.745 85.6887 185.316 73.8215 185.316C73.1234 185.316 72.5126 185.316 71.64 185.229V186.012C41.9718 186.012 16.2303 170.09 2.09423 146.425C0.785335 151.907 0 157.736 0 163.826C0 204.369 33.1586 237.43 73.8215 237.43C114.484 237.43 147.643 204.369 147.643 163.826C147.643 123.283 114.572 90.2217 73.8215 90.2217Z" fill="white" fill-opacity="1"/>
<rect width="127.987" height="233.777" fill="black" fill-opacity="0" transform="translate(617.014)"/>
<path d="M732.543 185.491L695.37 162.522L732.892 138.597C745.108 130.853 748.686 114.671 740.833 102.577C733.066 90.397 716.836 86.8299 704.707 94.6602L669.454 117.107V116.759L617.099 168.96V204.458C617.099 218.9 628.791 230.558 643.276 230.558C656.627 230.558 667.622 220.64 669.193 207.764L704.969 229.862C709.245 232.472 714.044 233.778 718.756 233.778C727.482 233.778 736.121 229.427 741.007 221.423C748.599 209.156 744.759 193.06 732.543 185.491Z" fill="white" fill-opacity="1"/>
<path d="M669.369 95.529V26.1008C669.369 11.6584 657.677 0 643.191 0C628.706 0 617.014 11.6584 617.014 26.1008V147.731L669.369 95.529Z" fill="white" fill-opacity="1"/>
<g opacity="1">
<rect width="231" height="147" fill="black" fill-opacity="0" transform="translate(155 94)"/>
<path d="M385.648 161.927C384.238 124.19 353.05 94 314.815 94C297.987 94 282.482 99.88 270.324 109.709C258.254 99.88 242.748 94 225.921 94C215.878 94 206.275 96.1063 197.553 99.88C193.148 96.4573 187.509 94.4388 181.43 94.4388C166.805 94.4388 155 106.199 155 120.767V162.015V191.854V214.672C155 229.24 166.805 241 181.43 241C196.055 241 207.86 229.24 207.86 214.672V191.854V166.052C207.86 165.613 207.86 165.087 207.86 164.648C207.86 154.731 215.966 146.657 225.921 146.657C235.876 146.657 243.982 154.731 243.982 164.648C243.982 165.174 243.982 165.613 244.07 166.14V214.672C244.07 229.24 255.875 241 270.5 241C285.125 241 296.93 229.24 296.93 214.672V165.438C296.93 165.174 296.93 164.911 296.93 164.648C296.93 154.731 305.035 146.657 314.991 146.657C324.946 146.657 333.051 154.731 333.051 164.648C333.051 165.262 333.051 165.789 333.14 166.403V214.672C333.14 229.24 344.945 241 359.57 241C374.194 241 386 229.24 386 214.672V164.648C385.824 163.682 385.736 162.805 385.648 161.927Z" fill="white"/>
</g>
</g>
</svg>
