<svg xmlns="http://www.w3.org/2000/svg" width="25.54" height="19.23" viewBox="0 0 25.54 19.23"><defs><style>.a{fill:#fff;stroke:#fff;stroke-width:0.3px;}</style></defs><g transform="translate(-7.85 -13.85)"><path class="a" d="M31.469,25.5,27.3,22.376c-.021-.016-.043-.031-.065-.045A2.1,2.1,0,0,0,24,24.1v6.31a2.1,2.1,0,0,0,3.235,1.773c.022-.014.044-.029.065-.045l4.168-3.127a2.1,2.1,0,0,0,0-3.51Zm-1.233,1.806L26.1,30.41v-6.3l4.133,3.1c.024.018.049.035.074.051C30.285,27.274,30.26,27.291,30.236,27.309Z" transform="translate(-7.587 -3.793)"/><path class="a" d="M27.982,14H13.258A5.264,5.264,0,0,0,8,19.258v8.413a5.264,5.264,0,0,0,5.258,5.258H27.982a5.264,5.264,0,0,0,5.258-5.258V19.258A5.264,5.264,0,0,0,27.982,14Zm3.155,13.672a3.158,3.158,0,0,1-3.155,3.155H13.258A3.158,3.158,0,0,1,10.1,27.672V19.258A3.158,3.158,0,0,1,13.258,16.1H27.982a3.158,3.158,0,0,1,3.155,3.155Z"/></g></svg>