<svg xmlns="http://www.w3.org/2000/svg" width="49" height="49" viewBox="0 0 49 49">
  <g id="Group_3245" data-name="Group 3245" transform="translate(66.839 -54.275)">
    <g id="Ellipse_24076" data-name="Ellipse 24076">
      <circle id="Ellipse_24077" data-name="Ellipse 24077" cx="24.5" cy="24.5" r="24.5" transform="translate(-66.839 54.275)" fill="#fff"/>
    </g>
    <g id="online-course">
      <g id="Path_5924" data-name="Path 5924">
        <path id="Path_5928" data-name="Path 5928" d="M-33.006,83.136a4.108,4.108,0,0,0-4.019-3.281h-2.461v-.647a6.552,6.552,0,0,0,3.1-4.413,2.461,2.461,0,0,0,1.746-3.011A2.462,2.462,0,0,0-36.2,70.1v-.959a5.742,5.742,0,0,0-5.742-5.742,5.742,5.742,0,0,0-5.742,5.742v.958a2.461,2.461,0,0,0-1.505,3.138A2.46,2.46,0,0,0-47.5,74.794a6.552,6.552,0,0,0,3.1,4.413v.647h-2.464a4.11,4.11,0,0,0-4.019,3.281h-1.954l2.047,8.259H-33.1l2.047-8.258Zm-8.941-18.1a4.106,4.106,0,0,1,4.1,4.1v.82a2.471,2.471,0,0,1-2.307-1.6l-.769-2.066-.767,2.064A2.47,2.47,0,0,1-44,69.954h-2.051v-.82a4.106,4.106,0,0,1,4.1-4.1Zm-4.037,8.923-.089-.72h-.8a.82.82,0,0,1-.82-.82.82.82,0,0,1,.82-.821H-44a4.118,4.118,0,0,0,3.076-1.391,4.117,4.117,0,0,0,3.081,1.387h.82a.821.821,0,0,1,.821.821.821.821,0,0,1-.821.82h-.8l-.089.72a4.727,4.727,0,0,1-3.216,4.19v1.708h-1.636V78.147a4.855,4.855,0,0,1-3.218-4.19Zm-.882,7.535h9.844a2.464,2.464,0,0,1,2.32,1.641H-49.188A2.467,2.467,0,0,1-46.866,81.494Zm12.483,8.258H-49.508l-1.234-4.977h17.59Z" fill="#141414"/>
      </g>
      <g id="Path_5925" data-name="Path 5925">
        <path id="Path_5929" data-name="Path 5929" d="M-43.115,84.306h2.337v2.337h-2.337Z" fill="#141414"/>
      </g>
    </g>
    <g id="Group_3243" data-name="Group 3243">
      <path id="Path_5930" data-name="Path 5930" d="M-45.136,78.512H-50.52v-1.4c1.8,0,2.5-2.885,2.508-2.915a.7.7,0,0,1,.837-.528.7.7,0,0,1,.528.837,7.312,7.312,0,0,1-1.224,2.606h2.735a.7.7,0,0,1,.7.7A.7.7,0,0,1-45.136,78.512Z" fill="#141414"/>
    </g>
    <g id="Group_3244" data-name="Group 3244">
      <path id="Path_5931" data-name="Path 5931" d="M-33.188,78.512h-5.384a.7.7,0,0,1-.7-.7.7.7,0,0,1,.7-.7h2.736A7.323,7.323,0,0,1-37.061,74.5a.7.7,0,0,1,.527-.836.7.7,0,0,1,.839.526c.006.029.692,2.916,2.507,2.916Z" fill="#141414"/>
    </g>
  </g>
</svg>
