<svg xmlns="http://www.w3.org/2000/svg" width="32" height="32" viewBox="0 0 32 32">
  <defs>
    <style>
      .cls-1 {
        fill: #fff;
      }

      .cls-2 {
        fill: none;
      }
    </style>
  </defs>
  <g id="Group_2264" data-name="Group 2264" transform="translate(-13 17343)">
    <path id="Subtraction_2" data-name="Subtraction 2" class="cls-1" d="M16.054,21.47H5.416A5.422,5.422,0,0,1,0,16.054V5.416A5.422,5.422,0,0,1,5.416,0H16.054a5.422,5.422,0,0,1,5.416,5.416V16.054A5.422,5.422,0,0,1,16.054,21.47ZM5.258,2.227A3.035,3.035,0,0,0,2.227,5.258V15.732a3.035,3.035,0,0,0,3.031,3.032H15.732a3.035,3.035,0,0,0,3.032-3.032V5.258a3.035,3.035,0,0,0-3.032-3.031ZM10.5,15.939a5.444,5.444,0,1,1,5.444-5.444A5.45,5.45,0,0,1,10.5,15.939Zm0-8.588a3.144,3.144,0,1,0,3.143,3.143A3.147,3.147,0,0,0,10.5,7.352Zm5.62-1.175A1.288,1.288,0,1,1,17.4,4.888,1.29,1.29,0,0,1,16.115,6.177Z" transform="translate(18 -17337)"/>
    <rect id="Rectangle_3575" data-name="Rectangle 3575" class="cls-2" width="32" height="32" transform="translate(13 -17343)"/>
  </g>
</svg>
