<svg xmlns="http://www.w3.org/2000/svg" width="38" height="38" viewBox="0 0 38 38">
  <defs>
    <style>
      .cls-1 {
        fill: #1362e1;
      }

      .cls-2 {
        fill: #fff;
      }
    </style>
  </defs>
  <g id="Group_2284" data-name="Group 2284" transform="translate(459.668 17365)">
    <g id="Group_2280" data-name="Group 2280" transform="translate(-1334 -19352)">
      <circle id="Ellipse_23968" data-name="Ellipse 23968" class="cls-1" cx="19" cy="19" r="19" transform="translate(874.332 1987)"/>
      <path id="Subtraction_22" data-name="Subtraction 22" class="cls-2" d="M15.776,21.1H5.322A5.328,5.328,0,0,1,0,15.775V5.322A5.328,5.328,0,0,1,5.322,0H15.776A5.328,5.328,0,0,1,21.1,5.322V15.775A5.328,5.328,0,0,1,15.776,21.1ZM5.167,2.188A2.982,2.982,0,0,0,2.188,5.167V15.458a2.982,2.982,0,0,0,2.979,2.979H15.459a2.983,2.983,0,0,0,2.979-2.979V5.167a2.982,2.982,0,0,0-2.979-2.979Zm5.146,13.474a5.349,5.349,0,1,1,5.35-5.35A5.355,5.355,0,0,1,10.313,15.662Zm0-8.438A3.089,3.089,0,1,0,13.4,10.312,3.093,3.093,0,0,0,10.313,7.224Zm5.522-1.154A1.266,1.266,0,1,1,17.1,4.8,1.268,1.268,0,0,1,15.835,6.069Z" transform="translate(883.01 1995.08)"/>
    </g>
  </g>
</svg>
