<svg id="Group_2255" data-name="Group 2255" xmlns="http://www.w3.org/2000/svg" viewBox="0 0 97.569 31.699">
  <path id="Path_15" data-name="Path 15" class="cls-1" d="M511,697.83c.189-.351.1-.771.3-1.172a11.566,11.566,0,0,0,1.272,1.678,10.112,10.112,0,0,0,7.436,3.433,3.175,3.175,0,0,0,3.043-1.415,2.805,2.805,0,1,0-5.162-1.063c.019.12.03.242.044.36-.123.1-.226.008-.313-.024a9,9,0,0,1-5.372-4.9.646.646,0,0,1,.038-.686,9.473,9.473,0,0,1,9.063-4.791,9.669,9.669,0,1,1-10.11,11.817,3.086,3.086,0,0,0-.243-1.013Z" transform="translate(-511 -677.328)"/>
  <path id="Path_16" data-name="Path 16" class="cls-1" d="M1126.872,705.279c-.15.093-.12.263-.163.4a3.375,3.375,0,0,1-4.906,2c-1.516-.851-2.972-1.812-4.455-2.723-.114-.07-.233-.133-.392-.224a3.555,3.555,0,0,1-.964,1.931,3.266,3.266,0,0,1-3.712.766,3.129,3.129,0,0,1-2.123-2.916c-.067-1.562-.02-3.128-.031-4.692a.56.56,0,0,1,.2-.427q3.231-3.231,6.458-6.466a1.508,1.508,0,0,1,.256-.2c1.444-.922,2.911-1.811,4.33-2.769a3.429,3.429,0,0,1,5.448,2.181c0,.019.038.034.058.05v1.07a4.6,4.6,0,0,1-2.446,2.912c-1.225.723-2.4,1.523-3.6,2.294a.982.982,0,0,0-.392.312c.129.085.25.17.376.247q2.129,1.317,4.262,2.63a3.467,3.467,0,0,1,1.719,2.432c.01.056.02.106.082.124Z" transform="translate(-1029.303 -677.367)"/>
  <path id="Path_17" data-name="Path 17" class="cls-1" d="M900.31,707.614a5.456,5.456,0,0,1-1.465-.6,3.308,3.308,0,0,1-1.488-2.747q-.03-6.664,0-13.329a3.415,3.415,0,0,1,6.828-.018q.04,6.685,0,13.37a3.34,3.34,0,0,1-2.664,3.231c-.1.024-.223,0-.307.092Z" transform="translate(-845.226 -675.914)"/>
  <path id="Path_18" data-name="Path 18" class="cls-1" d="M1113.944,601a3.937,3.937,0,0,1,2.092,1.271,3.4,3.4,0,0,1,.767,2.164c.012,2.962,0,5.923.01,8.885a.51.51,0,0,1-.162.4q-3.259,3.256-6.511,6.519a1.327,1.327,0,0,1-.124.1c-.131-.085-.076-.206-.076-.3q-.006-7.713,0-15.425a3.45,3.45,0,0,1,2.642-3.521.564.564,0,0,0,.13-.082Z" transform="translate(-1029.137 -601)"/>
  <path id="Path_19" data-name="Path 19" class="cls-1" d="M661.8,696.213q0-2.984,0-5.968a3.321,3.321,0,0,1,2-3.266,3.272,3.272,0,0,1,3.744.581.5.5,0,0,0,.559.069,9.138,9.138,0,0,1,7.246.643,7.527,7.527,0,0,1,1.072.685.506.506,0,0,0,.736.013,8.964,8.964,0,0,1,6.348-1.764,9.172,9.172,0,0,1,7.913,6.646,7.178,7.178,0,0,1,.235,3.532,4.5,4.5,0,0,0-.027.943c0,1.441.024,2.882-.015,4.321a3.42,3.42,0,0,1-6.838-.132c-.016-2.14,0-4.281,0-6.421a2.046,2.046,0,0,0-1.952-2.07,2.433,2.433,0,0,0-2.584,2.3c-.228,2.026-.109,4.051-.151,6.076a3.424,3.424,0,1,1-6.847-.047c-.007-2.031-.074-4.065.026-6.091a2.3,2.3,0,0,0-2.4-2.242,2.357,2.357,0,0,0-2.2,2.42c-.008,1.948-.012,3.9,0,5.845a3.364,3.364,0,0,1-1.411,2.912,3.42,3.42,0,0,1-5.442-2.772C661.779,700.357,661.8,698.285,661.8,696.213Z" transform="translate(-641.45 -675.082)"/>
  <path id="Path_20" data-name="Path 20" class="cls-1" d="M975.888,692.51a3.429,3.429,0,1,1,.323,6.85,2.341,2.341,0,0,0-2.391,1.865,13.309,13.309,0,0,0-.108,1.433,9.235,9.235,0,0,1-8.472,8.225,3.943,3.943,0,0,1-2.593-.567,3.472,3.472,0,0,1-1.366-3.806,3.415,3.415,0,0,1,3.159-2.458,2.392,2.392,0,0,0,2.307-1.482,2.564,2.564,0,0,0,.186-1.045,9.173,9.173,0,0,1,7.891-8.939A9.011,9.011,0,0,1,975.888,692.51Z" transform="translate(-900.424 -680.165)"/>
  <path id="Path_21" data-name="Path 21" class="cls-1" d="M903.965,624.256a3.428,3.428,0,1,1,3.458-3.44A3.446,3.446,0,0,1,903.965,624.256Z" transform="translate(-848.004 -615.189)"/>
</svg>
