<svg xmlns="http://www.w3.org/2000/svg" width="39.593" height="37.439" viewBox="0 0 39.593 37.439"><defs><style>.a{fill:#fff;}</style></defs><g transform="translate(1 -0.002)"><g transform="translate(10.785 20.772)"><path class="a" d="M147.488,284.046c.012.081.021.162.032.244C147.509,284.208,147.5,284.127,147.488,284.046Z" transform="translate(-147.488 -284.046)"/></g><g transform="translate(26.949 28.05)"><path class="a" d="M368.53,383.589l0-.014Z" transform="translate(-368.527 -383.575)"/></g><g transform="translate(26.873 27.704)"><path class="a" d="M367.5,378.865l0-.025Z" transform="translate(-367.496 -378.84)"/></g><g transform="translate(27.027 28.379)"><path class="a" d="M369.6,388.094l0-.019Z" transform="translate(-369.592 -388.075)"/></g><g transform="translate(10.858 21.333)"><path class="a" d="M148.481,291.715c.008.074.015.148.022.222C148.5,291.863,148.489,291.789,148.481,291.715Z" transform="translate(-148.481 -291.715)"/></g><g transform="translate(27.204 29.05)"><path class="a" d="M372.017,397.263l0-.01Z" transform="translate(-372.014 -397.253)"/></g><g transform="translate(37.34 20.613)"><path class="a" d="M510.62,281.93h0l.006-.053h0C510.624,281.894,510.622,281.912,510.62,281.93Z" transform="translate(-510.62 -281.876)"/></g><g transform="translate(26.799 27.33)"><path class="a" d="M366.494,373.785l-.011-.063C366.487,373.743,366.49,373.764,366.494,373.785Z" transform="translate(-366.483 -373.722)"/></g><g transform="translate(27.116 28.729)"><path class="a" d="M370.807,392.852h0Z" transform="translate(-370.807 -392.851)"/></g><g transform="translate(26.63 26.274)"><path class="a" d="M364.177,359.391c0-.033-.008-.066-.013-.1C364.168,359.325,364.172,359.358,364.177,359.391Z" transform="translate(-364.164 -359.292)"/></g><g transform="translate(26.548 25.567)"><path class="a" d="M363.059,349.732c0-.04-.008-.081-.011-.121C363.052,349.651,363.055,349.692,363.059,349.732Z" transform="translate(-363.048 -349.611)"/></g><g transform="translate(26.587 25.927)"><path class="a" d="M363.584,354.644c0-.035-.008-.07-.012-.1C363.576,354.575,363.58,354.61,363.584,354.644Z" transform="translate(-363.572 -354.54)"/></g><g transform="translate(10.474 19.113)"><path class="a" d="M143.233,261.359c.009.039.017.078.026.117C143.25,261.437,143.242,261.4,143.233,261.359Z" transform="translate(-143.233 -261.359)"/></g><g transform="translate(26.515 25.187)"><path class="a" d="M362.6,344.571c0-.052-.008-.1-.012-.157C362.6,344.466,362.6,344.519,362.6,344.571Z" transform="translate(-362.592 -344.414)"/></g><g transform="translate(10.34 18.568)"><path class="a" d="M141.4,253.909c.011.043.021.087.032.131C141.416,254,141.406,253.952,141.4,253.909Z" transform="translate(-141.395 -253.909)"/></g><g transform="translate(10.881 25.567)"><path class="a" d="M148.806,349.611c0,.04-.007.081-.011.121C148.8,349.692,148.8,349.651,148.806,349.611Z" transform="translate(-148.795 -349.611)"/></g><g transform="translate(26.68 26.624)"><path class="a" d="M364.858,364.164c0-.03-.009-.06-.013-.09C364.849,364.1,364.854,364.134,364.858,364.164Z" transform="translate(-364.845 -364.074)"/></g><g transform="translate(37.411 19.463)"><path class="a" d="M511.593,266.445h0c.005-.1.01-.2.014-.3h0C511.6,266.243,511.6,266.344,511.593,266.445Z" transform="translate(-511.593 -266.142)"/></g><g transform="translate(26.74 27.001)"><path class="a" d="M365.684,369.283c0-.018-.006-.035-.009-.053C365.678,369.248,365.681,369.265,365.684,369.283Z" transform="translate(-365.675 -369.23)"/></g><g transform="translate(10.697 20.215)"><path class="a" d="M146.282,276.431c.012.069.022.138.033.206C146.3,276.569,146.294,276.5,146.282,276.431Z" transform="translate(-146.282 -276.431)"/></g><g transform="translate(10.842 25.927)"><path class="a" d="M148.28,354.539c0,.035-.008.07-.012.1C148.272,354.609,148.276,354.574,148.28,354.539Z" transform="translate(-148.268 -354.539)"/></g><g transform="translate(10.63 27.33)"><path class="a" d="M145.371,373.721l-.011.063Z" transform="translate(-145.36 -373.721)"/></g><g transform="translate(10.562 27.704)"><path class="a" d="M144.441,378.839l0,.025Z" transform="translate(-144.436 -378.839)"/></g><g transform="translate(10.961 24.465)"><path class="a" d="M149.9,334.55c0,.062,0,.124-.008.186C149.9,334.674,149.9,334.612,149.9,334.55Z" transform="translate(-149.893 -334.55)"/></g><g transform="translate(10.94 24.818)"><path class="a" d="M149.619,339.381c0,.06-.007.119-.011.179C149.612,339.5,149.615,339.441,149.619,339.381Z" transform="translate(-149.608 -339.381)"/></g><g transform="translate(10.692 27.001)"><path class="a" d="M146.216,369.23c0,.018-.006.035-.009.053Z" transform="translate(-146.207 -369.23)"/></g><g transform="translate(4.944 0.001)"><path class="a" d="M95.166,6.06a18.691,18.691,0,0,0-27.552,0,22.386,22.386,0,0,1,5.165,29.28A18.691,18.691,0,0,0,90,35.34,22.386,22.386,0,0,1,95.166,6.06Z" transform="translate(-67.614 -0.001)"/></g><g transform="translate(10.748 26.624)"><path class="a" d="M146.986,364.075c0,.03-.009.06-.013.09C146.978,364.135,146.982,364.105,146.986,364.075Z" transform="translate(-146.973 -364.075)"/></g><g transform="translate(10.913 25.186)"><path class="a" d="M149.254,344.413c0,.052-.008.1-.012.157C149.246,344.518,149.25,344.465,149.254,344.413Z" transform="translate(-149.242 -344.413)"/></g><g transform="translate(10.798 26.274)"><path class="a" d="M147.673,359.292c0,.033-.008.066-.013.1C147.665,359.358,147.668,359.325,147.673,359.292Z" transform="translate(-147.66 -359.292)"/></g><g transform="translate(26.489 24.819)"><path class="a" d="M362.256,339.561c0-.06-.007-.119-.011-.179C362.249,339.442,362.252,339.5,362.256,339.561Z" transform="translate(-362.245 -339.382)"/></g><g transform="translate(10.955 22.463)"><path class="a" d="M149.812,307.176c.006.1.009.2.013.3C149.821,307.379,149.818,307.277,149.812,307.176Z" transform="translate(-149.812 -307.176)"/></g><g transform="translate(10.98 23.033)"><path class="a" d="M150.149,314.964q.008.285.008.572Q150.157,315.249,150.149,314.964Z" transform="translate(-150.149 -314.964)"/></g><g transform="translate(10.915 21.897)"><path class="a" d="M149.257,299.426c.008.1.014.2.021.293C149.271,299.621,149.265,299.523,149.257,299.426Z" transform="translate(-149.257 -299.426)"/></g><g transform="translate(10.234 29.05)"><path class="a" d="M139.95,397.253l0,.01Z" transform="translate(-139.947 -397.253)"/></g><g transform="translate(10.976 24.124)"><path class="a" d="M150.1,329.884c0,.06,0,.119,0,.179C150.1,330,150.1,329.944,150.1,329.884Z" transform="translate(-150.098 -329.884)"/></g><g transform="translate(10.489 28.05)"><path class="a" d="M143.434,383.575l0,.014Z" transform="translate(-143.431 -383.575)"/></g><g transform="translate(10.409 28.379)"><path class="a" d="M142.353,388.075l0,.019Z" transform="translate(-142.349 -388.075)"/></g><g transform="translate(10.985 23.605)"><path class="a" d="M150.222,322.783q0,.175,0,.35Q150.222,322.958,150.222,322.783Z" transform="translate(-150.219 -322.783)"/></g><g transform="translate(10.324 28.729)"><path class="a" d="M141.187,392.851h0Z" transform="translate(-141.187 -392.851)"/></g><g transform="translate(10.593 19.662)"><path class="a" d="M144.862,268.864c.012.061.023.123.035.184C144.885,268.987,144.874,268.925,144.862,268.864Z" transform="translate(-144.862 -268.864)"/></g><g transform="translate(27.222 18.028)"><path class="a" d="M372.261,246.629c.01-.034.018-.068.028-.1C372.279,246.561,372.271,246.6,372.261,246.629Z" transform="translate(-372.261 -246.527)"/></g><g transform="translate(27.39 17.494)"><path class="a" d="M374.559,239.295c.008-.027.016-.053.025-.08C374.575,239.241,374.567,239.268,374.559,239.295Z" transform="translate(-374.559 -239.215)"/></g><g transform="translate(27.569 16.964)"><path class="a" d="M377,232.045l.025-.073C377.02,232,377.013,232.021,377,232.045Z" transform="translate(-377.004 -231.972)"/></g><g transform="translate(9.223 15.411)"><path class="a" d="M126.122,210.733l.007.016Z" transform="translate(-126.122 -210.733)"/></g><g transform="translate(8.986 14.906)"><path class="a" d="M122.889,203.827l0,.008Z" transform="translate(-122.889 -203.827)"/></g><g transform="translate(27.068 18.568)"><path class="a" d="M370.163,254.04c.011-.043.021-.087.032-.131C370.184,253.952,370.174,254,370.163,254.04Z" transform="translate(-370.163 -253.909)"/></g><g transform="translate(26.813 19.662)"><path class="a" d="M366.665,269.048c.012-.061.022-.123.035-.184C366.687,268.925,366.677,268.987,366.665,269.048Z" transform="translate(-366.665 -268.864)"/></g><g transform="translate(0.023 17.761)"><path class="a" d="M.321,242.892h0v0Z" transform="translate(-0.321 -242.87)"/></g><g transform="translate(9.445 15.923)"><path class="a" d="M129.164,217.73l.009.023Z" transform="translate(-129.164 -217.73)"/></g><g transform="translate(26.941 19.113)"><path class="a" d="M368.417,261.476c.009-.039.016-.078.026-.117C368.434,261.4,368.426,261.437,368.417,261.476Z" transform="translate(-368.417 -261.359)"/></g><g transform="translate(0 18.721)"><path class="a" d="M0,256c0,.177,0,.354.008.53C0,256.355,0,256.178,0,256Z" transform="translate(0 -256.001)"/></g><g transform="translate(37.432 18.721)"><path class="a" d="M511.891,256.53c0-.176.008-.353.008-.53C511.9,256.177,511.9,256.354,511.891,256.53Z" transform="translate(-511.891 -256)"/></g><g transform="translate(0.016 19.463)"><path class="a" d="M.219,266.143c0,.076.007.151.01.227,0-.076-.007-.151-.01-.227Z" transform="translate(-0.219 -266.143)"/><path class="a" d="M.362,269.325c0-.025,0-.05,0-.076,0,.025,0,.051,0,.076Z" transform="translate(-0.349 -269.022)"/></g><g transform="translate(27.768 16.44)"><path class="a" d="M379.731,224.862l.019-.052Z" transform="translate(-379.731 -224.81)"/></g><g transform="translate(28.451 14.906)"><path class="a" d="M389.062,203.834l0-.008Z" transform="translate(-389.062 -203.826)"/></g><g transform="translate(0.1 20.659)"><path class="a" d="M1.368,282.507h0v0Z" transform="translate(-1.367 -282.499)"/></g><g transform="translate(0.006 18.231)"><path class="a" d="M.077,249.338h0c0-.015,0-.031,0-.046C.078,249.307.077,249.323.077,249.338Z" transform="translate(-0.077 -249.292)"/></g><g transform="translate(27.986 15.923)"><path class="a" d="M382.71,217.754l.009-.023Z" transform="translate(-382.71 -217.731)"/></g><g transform="translate(26.711 20.215)"><path class="a" d="M365.27,276.636c.011-.069.021-.138.033-.206C365.291,276.5,365.281,276.568,365.27,276.636Z" transform="translate(-365.27 -276.43)"/></g><g transform="translate(28.211 15.411)"><path class="a" d="M385.783,210.748l.007-.016Z" transform="translate(-385.783 -210.732)"/></g><g transform="translate(0.048 20.051)"><path class="a" d="M.654,274.19h0c0,.029,0,.058.007.087C.658,274.248.656,274.219.654,274.19Z" transform="translate(-0.654 -274.19)"/></g><g transform="translate(9.847 16.964)"><path class="a" d="M134.656,231.973c.009.024.016.049.025.073C134.672,232.022,134.665,232,134.656,231.973Z" transform="translate(-134.656 -231.973)"/></g><g transform="translate(26.56 21.333)"><path class="a" d="M363.214,291.937c.008-.074.014-.148.022-.222C363.228,291.789,363.222,291.863,363.214,291.937Z" transform="translate(-363.214 -291.715)"/></g><g transform="translate(10.19 18.029)"><path class="a" d="M139.353,246.528c.01.034.019.068.028.1C139.371,246.6,139.363,246.562,139.353,246.528Z" transform="translate(-139.353 -246.528)"/></g><g transform="translate(26.452 23.605)"><path class="a" d="M361.742,323.133q0-.174,0-.35Q361.739,322.958,361.742,323.133Z" transform="translate(-361.739 -322.783)"/></g><g transform="translate(26.46 24.124)"><path class="a" d="M361.845,330.062c0-.06,0-.119,0-.179C361.842,329.943,361.843,330,361.845,330.062Z" transform="translate(-361.84 -329.883)"/></g><g transform="translate(26.505 21.897)"><path class="a" d="M362.456,299.719c.007-.1.013-.2.021-.293C362.469,299.523,362.463,299.621,362.456,299.719Z" transform="translate(-362.456 -299.426)"/></g><g transform="translate(26.472 22.463)"><path class="a" d="M362.008,307.479c0-.1.007-.2.013-.3C362.015,307.276,362.012,307.378,362.008,307.479Z" transform="translate(-362.008 -307.175)"/></g><g transform="translate(26.452 23.033)"><path class="a" d="M361.739,315.537q0-.286.008-.572Q361.739,315.25,361.739,315.537Z" transform="translate(-361.739 -314.965)"/></g><g transform="translate(9.653 16.44)"><path class="a" d="M132.008,224.811l.019.052Z" transform="translate(-132.008 -224.811)"/></g><g transform="translate(26.471 24.465)"><path class="a" d="M362,334.736c0-.062-.005-.124-.008-.186C362,334.612,362,334.674,362,334.736Z" transform="translate(-361.997 -334.55)"/></g><g transform="translate(26.624 20.772)"><path class="a" d="M364.081,284.29c.011-.081.02-.163.032-.244C364.1,284.127,364.092,284.208,364.081,284.29Z" transform="translate(-364.081 -284.046)"/></g><g transform="translate(10.026 17.494)"><path class="a" d="M137.1,239.214c.009.026.016.053.024.08C137.121,239.267,137.114,239.24,137.1,239.214Z" transform="translate(-137.105 -239.214)"/></g><g transform="translate(10.05 17.574)"><path class="a" d="M137.441,240.306c.048.151.1.3.14.455C137.536,240.609,137.489,240.457,137.441,240.306Z" transform="translate(-137.441 -240.306)"/></g><g transform="translate(0 18.277)"><path class="a" d="M0,250.371c0-.148,0-.3.006-.444C0,250.075,0,250.223,0,250.371Z" transform="translate(0 -249.927)"/></g><g transform="translate(10.892 25.344)"><path class="a" d="M148.974,346.561c-.006.075-.014.149-.021.223C148.96,346.71,148.968,346.635,148.974,346.561Z" transform="translate(-148.953 -346.561)"/></g><g transform="translate(10.951 24.651)"><path class="a" d="M149.766,337.09c0,.056-.007.112-.01.168C149.759,337.2,149.763,337.146,149.766,337.09Z" transform="translate(-149.756 -337.09)"/></g><g transform="translate(10.219 18.131)"><path class="a" d="M139.739,247.924c.042.145.083.291.121.438C139.822,248.215,139.781,248.069,139.739,247.924Z" transform="translate(-139.739 -247.924)"/></g><g transform="translate(10.969 24.303)"><path class="a" d="M150.009,332.331c0,.054,0,.108-.007.162C150,332.439,150.007,332.385,150.009,332.331Z" transform="translate(-150.002 -332.331)"/></g><g transform="translate(0.03 19.766)"><path class="a" d="M.424,270.569q-.01-.143-.018-.286C.411,270.379.418,270.474.424,270.569Z" transform="translate(-0.406 -270.283)"/></g><g transform="translate(10.926 24.998)"><path class="a" d="M149.423,341.831c0,.063-.01.126-.015.189C149.413,341.957,149.418,341.894,149.423,341.831Z" transform="translate(-149.408 -341.831)"/></g><g transform="translate(10.372 18.699)"><path class="a" d="M141.837,255.7c.035.138.07.275.1.414C141.907,255.972,141.872,255.835,141.837,255.7Z" transform="translate(-141.837 -255.697)"/></g><g transform="translate(10.73 20.422)"><path class="a" d="M146.729,279.254c.019.117.039.233.056.35C146.768,279.487,146.748,279.371,146.729,279.254Z" transform="translate(-146.729 -279.254)"/></g><g transform="translate(10.5 19.23)"><path class="a" d="M143.582,262.965c.032.143.064.287.094.431C143.646,263.252,143.614,263.108,143.582,262.965Z" transform="translate(-143.582 -262.965)"/></g><g transform="translate(9.672 16.492)"><path class="a" d="M132.269,225.516c.06.157.119.314.175.472C132.388,225.83,132.329,225.673,132.269,225.516Z" transform="translate(-132.269 -225.516)"/></g><g transform="translate(10.817 21.016)"><path class="a" d="M147.919,287.378c.014.106.029.211.041.317C147.948,287.589,147.933,287.484,147.919,287.378Z" transform="translate(-147.919 -287.378)"/></g><g transform="translate(10.88 21.555)"><path class="a" d="M148.786,294.749c.012.114.025.228.034.342C148.81,294.977,148.8,294.863,148.786,294.749Z" transform="translate(-148.786 -294.749)"/></g><g transform="translate(10.936 22.19)"><path class="a" d="M149.544,303.436c.007.091.014.182.02.273C149.558,303.618,149.551,303.527,149.544,303.436Z" transform="translate(-149.544 -303.436)"/></g><g transform="translate(9.454 15.946)"><path class="a" d="M129.29,218.045q.1.246.2.495Q129.393,218.291,129.29,218.045Z" transform="translate(-129.29 -218.045)"/></g><g transform="translate(9.23 15.427)"><path class="a" d="M126.217,210.95q.111.246.215.5Q126.328,211.2,126.217,210.95Z" transform="translate(-126.217 -210.95)"/></g><g transform="translate(9.872 17.038)"><path class="a" d="M135,232.976c.053.151.1.3.154.456C135.1,233.279,135.049,233.128,135,232.976Z" transform="translate(-134.996 -232.976)"/></g><g transform="translate(10.981 23.954)"><path class="a" d="M150.165,327.563c0,.057,0,.113,0,.17C150.162,327.676,150.164,327.62,150.165,327.563Z" transform="translate(-150.161 -327.563)"/></g><g transform="translate(10.968 22.768)"><path class="a" d="M149.992,311.338c0,.088.009.177.011.265C150,311.515,150,311.426,149.992,311.338Z" transform="translate(-149.992 -311.338)"/></g><g transform="translate(8.99 14.913)"><path class="a" d="M122.938,203.93q.12.247.233.5Q123.058,204.177,122.938,203.93Z" transform="translate(-122.938 -203.93)"/></g><g transform="translate(10.628 19.846)"><path class="a" d="M145.335,271.383c.024.123.048.246.069.369C145.383,271.629,145.359,271.506,145.335,271.383Z" transform="translate(-145.335 -271.383)"/></g><g transform="translate(37.424 19.251)"><path class="a" d="M511.781,263.462c0-.07.006-.141.008-.211h0C511.787,263.322,511.784,263.392,511.781,263.462Z" transform="translate(-511.781 -263.251)"/></g><g transform="translate(26.526 21.555)"><path class="a" d="M362.743,295.093c.01-.114.023-.228.034-.342C362.766,294.865,362.753,294.979,362.743,295.093Z" transform="translate(-362.743 -294.751)"/></g><g transform="translate(26.461 22.768)"><path class="a" d="M361.851,311.6c0-.089.008-.177.011-.265C361.859,311.426,361.854,311.515,361.851,311.6Z" transform="translate(-361.851 -311.338)"/></g><g transform="translate(26.847 19.23)"><path class="a" d="M367.138,263.4c.029-.144.061-.288.094-.431C367.2,263.107,367.167,263.251,367.138,263.4Z" transform="translate(-367.138 -262.964)"/></g><g transform="translate(26.485 22.19)"><path class="a" d="M362.187,303.71c.005-.091.013-.182.02-.273C362.2,303.527,362.192,303.618,362.187,303.71Z" transform="translate(-362.187 -303.436)"/></g><g transform="translate(26.743 19.846)"><path class="a" d="M365.718,271.752c.021-.123.046-.246.069-.369C365.764,271.506,365.739,271.629,365.718,271.752Z" transform="translate(-365.718 -271.383)"/></g><g transform="translate(26.655 20.422)"><path class="a" d="M364.512,279.6c.017-.117.037-.234.055-.35C364.548,279.371,364.529,279.487,364.512,279.6Z" transform="translate(-364.512 -279.254)"/></g><g transform="translate(26.583 21.016)"><path class="a" d="M363.519,287.7c.012-.106.027-.211.041-.317C363.546,287.484,363.531,287.589,363.519,287.7Z" transform="translate(-363.519 -287.378)"/></g><g transform="translate(26.5 24.998)"><path class="a" d="M362.407,342.02c0-.063-.01-.126-.015-.189C362.4,341.894,362.4,341.957,362.407,342.02Z" transform="translate(-362.392 -341.831)"/></g><g transform="translate(26.527 25.343)"><path class="a" d="M362.779,346.783c-.007-.074-.015-.149-.021-.223C362.764,346.634,362.772,346.709,362.779,346.783Z" transform="translate(-362.758 -346.56)"/></g><g transform="translate(26.479 24.651)"><path class="a" d="M362.118,337.257c0-.056-.007-.112-.01-.168C362.111,337.145,362.115,337.2,362.118,337.257Z" transform="translate(-362.108 -337.089)"/></g><g transform="translate(26.455 23.954)"><path class="a" d="M361.784,327.734c0-.057,0-.113,0-.17C361.781,327.621,361.783,327.677,361.784,327.734Z" transform="translate(-361.78 -327.564)"/></g><g transform="translate(26.464 24.303)"><path class="a" d="M361.91,332.494c0-.054-.005-.108-.007-.162C361.9,332.386,361.908,332.44,361.91,332.494Z" transform="translate(-361.903 -332.332)"/></g><g transform="translate(28.454 7.955)"><path class="a" d="M389.361,197.011q-.129.247-.251.5Q389.232,197.258,389.361,197.011Z" transform="translate(-389.11 -190.558)"/><path class="a" d="M459.329,109.545q.2-.169.407-.332Q459.53,109.377,459.329,109.545Z" transform="translate(-454.194 -109.181)"/><path class="a" d="M459.107,113.768l.016-.014Z" transform="translate(-453.988 -113.389)"/><path class="a" d="M395.827,190.3l-.025.047Z" transform="translate(-395.313 -184.334)"/><path class="a" d="M392.776,190.942c-.081.147-.161.295-.239.444C392.614,191.237,392.694,191.089,392.776,190.942Z" transform="translate(-392.286 -184.933)"/><path class="a" d="M396.15,119.529a19.985,19.985,0,0,1,4.6-5.583A19.983,19.983,0,0,0,396.15,119.529Z" transform="translate(-395.635 -113.567)"/><path class="a" d="M511.679,243.192c.007.131.011.262.015.393Q511.688,243.388,511.679,243.192Z" transform="translate(-502.716 -233.362)"/><path class="a" d="M511.883,248.574h0c0,.031,0,.061,0,.092C511.885,248.635,511.884,248.6,511.883,248.574Z" transform="translate(-502.905 -238.35)"/><path class="a" d="M464.934,108.842l-.033.027.033-.027Z" transform="translate(-459.359 -108.837)"/><path class="a" d="M511.925,250.284c0-.151,0-.3-.006-.451,0,0,0,0,0,.007C511.923,249.988,511.925,250.135,511.925,250.284Z" transform="translate(-502.939 -239.518)"/><path class="a" d="M511.654,242.667l0-.036v0c0,.014,0,.027,0,.041S511.654,242.668,511.654,242.667Z" transform="translate(-502.691 -232.839)"/><path class="a" d="M465.364,108.769l-.007.005a18.609,18.609,0,0,1,3.385,9.783A18.455,18.455,0,0,0,465.364,108.769Z" transform="translate(-459.781 -108.769)"/></g><g transform="translate(26.56 25.688)"><path class="a" d="M363.231,351.508c-.009-.08-.019-.159-.027-.239C363.212,351.349,363.222,351.428,363.231,351.508Z" transform="translate(-363.204 -351.269)"/></g><g transform="translate(27.995 15.427)"><path class="a" d="M382.836,211.446q.1-.249.215-.5Q382.941,211.2,382.836,211.446Z" transform="translate(-382.836 -210.95)"/></g><g transform="translate(28.218 14.913)"><path class="a" d="M385.878,204.427q.113-.25.233-.5Q385.991,204.177,385.878,204.427Z" transform="translate(-385.878 -203.93)"/></g><g transform="translate(37.345 19.766)"><path class="a" d="M511.158,275.334c0-.036.005-.071.008-.107C511.163,275.263,511.161,275.3,511.158,275.334Z" transform="translate(-511.124 -274.866)"/><path class="a" d="M510.731,276.707v-.017c-.01.127-.021.253-.034.379C510.711,276.949,510.721,276.828,510.731,276.707Z" transform="translate(-510.699 -276.222)"/><path class="a" d="M511.292,270.287c-.007.121-.015.241-.024.361,0-.025,0-.05.006-.076Q511.284,270.43,511.292,270.287Z" transform="translate(-511.226 -270.287)"/></g><g transform="translate(27.207 20.667)"><path class="a" d="M393.261,450.154q-.171-.3-.331-.6Q393.09,449.856,393.261,450.154Z" transform="translate(-391.403 -437.345)"/><path class="a" d="M392.926,449.546h0Z" transform="translate(-391.4 -437.338)"/><path class="a" d="M389,441.768q-.16-.3-.31-.614Q388.839,441.463,389,441.768Z" transform="translate(-387.473 -429.561)"/><path class="a" d="M397.453,457.79v0Z" transform="translate(-395.595 -444.978)"/><path class="a" d="M399.834,461.871v0Z" transform="translate(-397.801 -448.761)"/><path class="a" d="M400.026,462.189q-.088-.143-.174-.287Q399.938,462.046,400.026,462.189Z" transform="translate(-397.819 -448.792)"/><path class="a" d="M397.643,458.116q-.088-.147-.173-.3Q397.555,457.969,397.643,458.116Z" transform="translate(-395.611 -445.008)"/><path class="a" d="M388.649,441.067l0-.007Z" transform="translate(-387.433 -429.474)"/><path class="a" d="M402.242,465.841h0l-.005-.008Z" transform="translate(-400.03 -452.435)"/><path class="a" d="M372.148,397.719q-.05-.164-.1-.329Q372.1,397.555,372.148,397.719Z" transform="translate(-372.052 -388.997)"/><path class="a" d="M374.763,406.355h0Z" transform="translate(-374.565 -397.306)"/><path class="a" d="M373.472,402.213q-.052-.163-.1-.327Q373.419,402.05,373.472,402.213Z" transform="translate(-373.274 -393.164)"/><path class="a" d="M402.307,296.022l.005.009a18.561,18.561,0,0,0,7.915-13.415A18.732,18.732,0,0,1,402.307,296.022Z" transform="translate(-400.095 -282.616)"/><path class="a" d="M381.376,424.6q-.135-.308-.26-.62Q381.241,424.295,381.376,424.6Z" transform="translate(-380.453 -413.645)"/><path class="a" d="M375.225,407.636q-.253-.632-.461-1.279Q374.972,407,375.225,407.636Z" transform="translate(-374.566 -397.308)"/><path class="a" d="M385.037,433.246q-.148-.306-.285-.617Q384.889,432.94,385.037,433.246Z" transform="translate(-383.823 -421.659)"/><path class="a" d="M384.683,432.469l-.005-.013Z" transform="translate(-383.755 -421.499)"/><path class="a" d="M381.07,423.863l0-.009Z" transform="translate(-380.407 -413.526)"/></g><g transform="translate(27.594 16.492)"><path class="a" d="M377.343,225.989c.056-.158.115-.315.175-.472C377.458,225.674,377.4,225.831,377.343,225.989Z" transform="translate(-377.343 -225.517)"/></g><g transform="translate(10.854 25.688)"><path class="a" d="M148.455,351.27c-.008.08-.018.159-.027.239C148.437,351.429,148.447,351.35,148.455,351.27Z" transform="translate(-148.428 -351.27)"/></g><g transform="translate(27.25 17.574)"><path class="a" d="M372.647,240.761c.044-.152.092-.3.14-.455C372.739,240.457,372.692,240.609,372.647,240.761Z" transform="translate(-372.647 -240.306)"/></g><g transform="translate(26.966 18.699)"><path class="a" d="M368.767,256.111c.032-.139.067-.276.1-.414C368.834,255.835,368.8,255.972,368.767,256.111Z" transform="translate(-368.767 -255.697)"/></g><g transform="translate(27.787 15.946)"><path class="a" d="M379.991,218.54q.1-.249.2-.495Q380.087,218.291,379.991,218.54Z" transform="translate(-379.991 -218.045)"/></g><g transform="translate(27.415 17.038)"><path class="a" d="M374.895,233.432c.049-.153.1-.3.154-.456C375,233.128,374.944,233.279,374.895,233.432Z" transform="translate(-374.895 -232.976)"/></g><g transform="translate(27.101 18.131)"><path class="a" d="M370.6,248.362c.038-.147.079-.292.121-.438C370.684,248.069,370.642,248.215,370.6,248.362Z" transform="translate(-370.604 -247.924)"/></g><g transform="translate(10.325 28.398)"><path class="a" d="M141.277,388.33q-.041.166-.085.331Q141.236,388.5,141.277,388.33Z" transform="translate(-141.192 -388.33)"/></g><g transform="translate(10.414 28.064)"><path class="a" d="M142.483,383.765q-.036.158-.075.315Q142.447,383.923,142.483,383.765Z" transform="translate(-142.408 -383.765)"/></g><g transform="translate(10.237 28.73)"><path class="a" d="M140.073,392.87q-.043.161-.088.321Q140.03,393.031,140.073,392.87Z" transform="translate(-139.985 -392.87)"/></g><g transform="translate(0.007 17.783)"><path class="a" d="M.1,243.564c0,.017,0,.034,0,.052q.006-.224.017-.448C.105,243.3.1,243.432.1,243.564Z" transform="translate(-0.095 -243.168)"/></g><g transform="translate(0.025 7.955)"><path class="a" d="M47.044,109.168q.208.165.411.335Q47.252,109.333,47.044,109.168Z" transform="translate(-43.628 -109.139)"/><path class="a" d="M46.643,108.842h0l.029.024Z" transform="translate(-43.257 -108.837)"/><path class="a" d="M3.791,108.769a18.452,18.452,0,0,0-3.374,9.705,18.609,18.609,0,0,1,3.38-9.7Z" transform="translate(-0.411 -108.769)"/><path class="a" d="M52.669,113.752l.028.024Z" transform="translate(-48.842 -113.388)"/><path class="a" d="M.336,241.591c0-.034,0-.067.006-.1,0,.029,0,.058-.005.086C.336,241.581.336,241.586.336,241.591Z" transform="translate(-0.336 -231.785)"/><path class="a" d="M64.257,124.049h0Z" transform="translate(-59.583 -122.932)"/><path class="a" d="M53.055,114.086q.2.171.4.347Q53.258,114.257,53.055,114.086Z" transform="translate(-49.2 -113.697)"/><path class="a" d="M68.549,129.887a20,20,0,0,0-4.287-5.833A19.994,19.994,0,0,1,68.549,129.887Z" transform="translate(-59.587 -122.936)"/><path class="a" d="M58.692,118.961q.206.184.407.372Q58.9,119.144,58.692,118.961Z" transform="translate(-54.425 -118.216)"/><path class="a" d="M58.544,118.826l.011.01Z" transform="translate(-54.287 -118.091)"/></g><g transform="translate(26.598 26.031)"><path class="a" d="M363.765,356.211c-.011-.081-.022-.162-.031-.243C363.743,356.049,363.754,356.13,363.765,356.211Z" transform="translate(-363.733 -355.968)"/></g><g transform="translate(10.811 26.031)"><path class="a" d="M147.869,355.968c-.01.081-.021.162-.032.243C147.848,356.13,147.859,356.049,147.869,355.968Z" transform="translate(-147.837 -355.968)"/></g><g transform="translate(10.761 26.374)"><path class="a" d="M147.192,360.648c-.012.084-.024.167-.037.251C147.168,360.815,147.18,360.732,147.192,360.648Z" transform="translate(-147.155 -360.648)"/></g><g transform="translate(10.7 26.715)"><path class="a" d="M146.373,365.31q-.022.143-.047.287C146.342,365.5,146.358,365.406,146.373,365.31Z" transform="translate(-146.326 -365.31)"/></g><g transform="translate(10.567 27.392)"><path class="a" d="M144.568,374.581q-.03.156-.063.312C144.527,374.789,144.548,374.685,144.568,374.581Z" transform="translate(-144.505 -374.581)"/></g><g transform="translate(10.641 27.054)"><path class="a" d="M145.567,369.951c-.016.092-.033.184-.05.276C145.534,370.135,145.551,370.043,145.567,369.951Z" transform="translate(-145.517 -369.951)"/></g><g transform="translate(10.492 27.729)"><path class="a" d="M143.543,379.181q-.034.161-.07.321Q143.509,379.342,143.543,379.181Z" transform="translate(-143.473 -379.181)"/></g><g transform="translate(0.008 19.251)"><path class="a" d="M.109,263.251h0c0,.071.005.141.008.211C.114,263.392.111,263.322.109,263.251Z" transform="translate(-0.109 -263.251)"/></g><g transform="translate(26.878 27.729)"><path class="a" d="M367.634,379.5q-.036-.16-.07-.321Q367.6,379.342,367.634,379.5Z" transform="translate(-367.564 -379.181)"/></g><g transform="translate(26.749 27.054)"><path class="a" d="M365.844,370.228c-.017-.092-.034-.184-.05-.276C365.81,370.044,365.827,370.136,365.844,370.228Z" transform="translate(-365.794 -369.952)"/></g><g transform="translate(26.693 26.715)"><path class="a" d="M365.074,365.6c-.016-.1-.032-.191-.047-.287Q365.049,365.455,365.074,365.6Z" transform="translate(-365.027 -365.311)"/></g><g transform="translate(26.643 26.374)"><path class="a" d="M364.376,360.9c-.013-.083-.025-.167-.037-.251C364.351,360.732,364.363,360.815,364.376,360.9Z" transform="translate(-364.339 -360.648)"/></g><g transform="translate(26.811 27.392)"><path class="a" d="M366.7,374.891q-.033-.155-.063-.312Q366.671,374.735,366.7,374.891Z" transform="translate(-366.641 -374.579)"/></g><g transform="translate(26.952 28.064)"><path class="a" d="M368.642,384.08q-.039-.157-.075-.315Q368.6,383.923,368.642,384.08Z" transform="translate(-368.567 -383.765)"/></g><g transform="translate(0.054 20.139)"><path class="a" d="M.745,275.388c0,.037.005.075.008.112.01.121.02.242.032.363l0,.045Q.764,275.649.745,275.388Z" transform="translate(-0.745 -275.388)"/></g><g transform="translate(0.101 20.667)"><path class="a" d="M1.379,282.61a18.561,18.561,0,0,0,7.915,13.415l.005-.009A18.731,18.731,0,0,1,1.379,282.61Z" transform="translate(-1.379 -282.61)"/><path class="a" d="M109.7,465.837l0,.008h0Z" transform="translate(-101.772 -452.438)"/><path class="a" d="M109.76,402.4a19.768,19.768,0,0,0,2.208-5.005A19.773,19.773,0,0,1,109.76,402.4Z" transform="translate(-101.835 -388.997)"/></g><g transform="translate(27.116 28.73)"><path class="a" d="M370.9,393.191q-.045-.16-.088-.321Q370.855,393.031,370.9,393.191Z" transform="translate(-370.812 -392.87)"/></g><g transform="translate(27.031 28.398)"><path class="a" d="M369.736,388.661q-.044-.165-.085-.331Q369.692,388.5,369.736,388.661Z" transform="translate(-369.651 -388.33)"/></g><g transform="translate(0 0.001)"><path class="a" d="M95.167,6.06a18.69,18.69,0,0,0-27.552,0A22.386,22.386,0,0,1,72.78,35.34,18.691,18.691,0,0,0,90,35.34,22.386,22.386,0,0,1,95.167,6.06Z" transform="translate(-62.671 -0.001)"/><path class="a" d="M8.723,126.744q.039-.136.075-.273h0q.037-.14.072-.282l0-.016q.033-.134.064-.269l0-.012q.031-.137.06-.274l0-.021q.028-.132.053-.265l.01-.054c.015-.078.029-.156.043-.235L9.118,125q.021-.122.04-.244c0-.026.007-.051.011-.077.011-.071.022-.142.031-.214,0-.028.007-.056.011-.085.009-.069.019-.138.027-.207,0-.03.007-.059.01-.089.008-.068.016-.136.023-.2,0-.034.006-.069.01-.1.006-.063.013-.127.018-.19,0-.045.007-.089.01-.134s.009-.107.012-.161.006-.1.009-.153.006-.1.009-.143,0-.105.007-.158,0-.092.006-.138,0-.1,0-.153,0-.1,0-.145q0-.149,0-.3,0-.244-.007-.487c0-.075-.007-.151-.01-.226s-.006-.173-.011-.259-.011-.155-.017-.233-.011-.167-.018-.25-.019-.194-.029-.291c-.007-.063-.012-.126-.019-.189-.01-.09-.023-.18-.035-.27-.009-.069-.017-.139-.027-.208-.014-.1-.031-.2-.047-.3-.009-.059-.018-.117-.028-.176-.018-.105-.039-.21-.059-.315-.01-.052-.019-.1-.029-.157-.025-.123-.052-.245-.08-.368-.008-.033-.014-.067-.022-.1-.027-.118-.057-.235-.087-.353-.009-.037-.018-.074-.027-.111-.033-.125-.068-.249-.1-.373-.008-.029-.016-.058-.024-.087-.038-.13-.078-.259-.119-.388l-.021-.068c-.042-.13-.086-.26-.131-.389l-.021-.063c-.048-.135-.1-.269-.149-.4L8.226,116q-.082-.212-.169-.422l-.008-.02q-.089-.213-.184-.422l-.006-.014q-.1-.213-.2-.424l0-.006A17.032,17.032,0,0,0,2.9,108.767a15.727,15.727,0,0,0-2.88,8.356v.018h0q-.009.19-.014.382c0,.013,0,.026,0,.039H0c0,.126,0,.252,0,.379,0,.151,0,.3.007.452,0,.06,0,.12.007.18h0c0,.086.007.172.012.258h0c0,.081.01.162.015.244h0c0,.025,0,.05.006.075q.016.222.039.443v.007a15.817,15.817,0,0,0,6.745,11.432,16.846,16.846,0,0,0,1.89-4.28Z" transform="translate(-1 -98.887)"/><path class="a" d="M367.917,108.771a16.28,16.28,0,0,0-4.547,5.662l0,.006q-.1.2-.19.405l-.006.013q-.09.2-.175.4l-.008.019q-.083.2-.162.4l-.016.042c-.049.128-.1.256-.142.385l-.02.06c-.043.123-.085.247-.126.372-.007.022-.013.043-.02.065-.039.123-.078.246-.114.371-.008.028-.015.056-.023.083-.034.119-.067.237-.1.356-.009.035-.017.071-.026.106-.029.112-.057.224-.083.337-.007.032-.014.064-.021.1-.026.117-.052.234-.076.351-.01.05-.019.1-.028.15-.019.1-.039.2-.056.3-.01.056-.018.112-.027.168-.015.1-.031.19-.045.285-.009.066-.017.132-.026.2-.011.086-.024.172-.034.258-.007.06-.012.121-.018.181-.01.093-.02.185-.028.278s-.012.159-.017.239-.012.148-.016.223-.007.165-.011.248-.007.144-.009.216q-.007.232-.007.466,0,.142,0,.285c0,.046,0,.092,0,.138s0,.1,0,.146,0,.088.006.132,0,.1.006.151.005.091.008.137.005.1.009.146.008.1.012.154.006.085.01.128c.005.061.011.121.017.182,0,.033.006.066.009.1.007.065.014.13.022.195,0,.028.006.057.01.085.008.066.017.132.026.2,0,.027.007.054.01.081.009.068.02.136.03.2,0,.024.007.049.011.074q.018.117.039.233c0,.014,0,.029.007.043.013.075.027.15.041.225l.009.051q.024.127.051.254l0,.02q.028.131.057.262l0,.011q.029.129.061.257l0,.015q.033.135.069.269h0q.035.131.072.261l0,.008a16.1,16.1,0,0,0,1.806,4.091,15.119,15.119,0,0,0,6.447-10.927h0l0-.044h0q.034-.343.053-.69h0q.007-.123.011-.246h0c0-.057,0-.115.007-.172,0-.144.006-.288.006-.432A15.062,15.062,0,0,0,367.917,108.771Z" transform="translate(-332.096 -97.892)"/></g></g></svg>