<svg xmlns="http://www.w3.org/2000/svg" width="40" height="44" viewBox="0 0 40 44"><defs><style>.a{fill:#fff;}</style></defs><g transform="translate(-1.167)"><path class="a" d="M36.992.168,17.96,5.99a5.975,5.975,0,0,0-4.175,5.369V31.435s-1.379-.93-4.451-.5c-4.51.641-8.168,4.1-8.168,7.734s3.657,5.857,8.168,5.216,7.822-3.993,7.822-7.627V19.123c0-1.61,1.936-2.3,1.936-2.3L35.92,11.548s1.862-.625,1.862,1.1V26.414A8.205,8.205,0,0,0,33,25.8c-4.51.546-8.168,3.937-8.168,7.567S28.485,39.3,33,38.751s8.171-3.935,8.171-7.568V3.152C41.167.846,39.3-.49,36.992.168Z" transform="translate(0 0)"/></g></svg>