<svg xmlns="http://www.w3.org/2000/svg" width="32" height="32" viewBox="0 0 32 32">
  <defs>
    <style>
      .cls-1 {
        fill: #0cb3a1;
      }

      .cls-2 {
        fill: none;
      }
    </style>
  </defs>
  <g id="Group_2273" data-name="Group 2273" transform="translate(-588 18053)">
    <g id="noun_Download_3387946" transform="translate(588 -18052.158)">
      <g id="Group_1134" data-name="Group 1134" transform="translate(0 0.159)">
        <path id="Path_4921" data-name="Path 4921" class="cls-1" d="M30.947,19.738A1.053,1.053,0,0,1,32,20.79h0V24.58a6.105,6.105,0,0,1-6.105,6.105H6.105A6.105,6.105,0,0,1,0,24.58H0V20.79a1.053,1.053,0,0,1,2.105,0h0V24.58a4,4,0,0,0,4,4H25.895a4,4,0,0,0,4-4h0V20.79A1.053,1.053,0,0,1,30.947,19.738ZM16,.159a1.053,1.053,0,0,1,1.05.983l0,.069V18.578L21.6,14.336a1.053,1.053,0,0,1,1.435,0l.053.053a1.053,1.053,0,0,1,0,1.435l-.053.053-6.309,5.889q-.028.027-.059.052l-.016.013-.038.028-.027.019-.028.018-.027.016-.042.023-.017.009-.039.018-.027.012-.035.014-.03.011-.028.009-.038.011a1.033,1.033,0,0,1-.106.022l-.027,0-.07.007-.069,0h0a1.058,1.058,0,0,1-.16-.012l-.05-.009a1.051,1.051,0,0,1-.929-.262L8.545,15.876a1.053,1.053,0,1,1,1.436-1.539l4.966,4.635V1.211A1.053,1.053,0,0,1,16,.159Z" transform="translate(0 -0.159)"/>
      </g>
    </g>
  </g>
</svg>
