<svg xmlns="http://www.w3.org/2000/svg" width="56" height="56" viewBox="0 0 56 56">
  <defs>
    <style>
      .cls-1 {
        fill: #fff;
      }

      .cls-2 {
        fill: none;
      }
    </style>
  </defs>
  <g id="Group_2268" data-name="Group 2268" transform="translate(-650 17422)">
    <g id="gymnast" transform="translate(659 -17413.002)">
      <g id="Group_1689" data-name="Group 1689" transform="translate(10.906 20.985)">
        <g id="Group_1688" data-name="Group 1688">
          <path id="Path_5203" data-name="Path 5203" class="cls-1" d="M147.488,284.046c.012.082.021.164.032.246C147.509,284.21,147.5,284.128,147.488,284.046Z" transform="translate(-147.488 -284.046)"/>
        </g>
      </g>
      <g id="Group_1691" data-name="Group 1691" transform="translate(27.236 28.338)">
        <g id="Group_1690" data-name="Group 1690">
          <path id="Path_5204" data-name="Path 5204" class="cls-1" d="M368.53,383.589l0-.014Z" transform="translate(-368.527 -383.575)"/>
        </g>
      </g>
      <g id="Group_1693" data-name="Group 1693" transform="translate(27.16 27.988)">
        <g id="Group_1692" data-name="Group 1692">
          <path id="Path_5205" data-name="Path 5205" class="cls-1" d="M367.5,378.865l-.005-.025Z" transform="translate(-367.496 -378.84)"/>
        </g>
      </g>
      <g id="Group_1695" data-name="Group 1695" transform="translate(27.315 28.671)">
        <g id="Group_1694" data-name="Group 1694">
          <path id="Path_5206" data-name="Path 5206" class="cls-1" d="M369.6,388.094l0-.019Z" transform="translate(-369.592 -388.075)"/>
        </g>
      </g>
      <g id="Group_1697" data-name="Group 1697" transform="translate(10.98 21.552)">
        <g id="Group_1696" data-name="Group 1696">
          <path id="Path_5207" data-name="Path 5207" class="cls-1" d="M148.481,291.715c.009.075.015.15.023.224C148.5,291.865,148.49,291.79,148.481,291.715Z" transform="translate(-148.481 -291.715)"/>
        </g>
      </g>
      <g id="Group_1699" data-name="Group 1699" transform="translate(27.494 29.349)">
        <g id="Group_1698" data-name="Group 1698">
          <path id="Path_5208" data-name="Path 5208" class="cls-1" d="M372.017,397.263l0-.01Z" transform="translate(-372.014 -397.253)"/>
        </g>
      </g>
      <g id="Group_1701" data-name="Group 1701" transform="translate(37.733 20.825)">
        <g id="Group_1700" data-name="Group 1700">
          <path id="Path_5209" data-name="Path 5209" class="cls-1" d="M510.62,281.931h0l.006-.054h0C510.624,281.894,510.622,281.912,510.62,281.931Z" transform="translate(-510.62 -281.876)"/>
        </g>
      </g>
      <g id="Group_1703" data-name="Group 1703" transform="translate(27.085 27.61)">
        <g id="Group_1702" data-name="Group 1702">
          <path id="Path_5210" data-name="Path 5210" class="cls-1" d="M366.495,373.785l-.012-.063C366.487,373.743,366.491,373.764,366.495,373.785Z" transform="translate(-366.483 -373.722)"/>
        </g>
      </g>
      <g id="Group_1705" data-name="Group 1705" transform="translate(27.404 29.024)">
        <g id="Group_1704" data-name="Group 1704">
          <path id="Path_5211" data-name="Path 5211" class="cls-1" d="M370.807,392.852h0Z" transform="translate(-370.807 -392.851)"/>
        </g>
      </g>
      <g id="Group_1707" data-name="Group 1707" transform="translate(26.914 26.544)">
        <g id="Group_1706" data-name="Group 1706">
          <path id="Path_5212" data-name="Path 5212" class="cls-1" d="M364.177,359.392c0-.033-.009-.067-.013-.1C364.168,359.325,364.172,359.359,364.177,359.392Z" transform="translate(-364.164 -359.292)"/>
        </g>
      </g>
      <g id="Group_1709" data-name="Group 1709" transform="translate(26.831 25.829)">
        <g id="Group_1708" data-name="Group 1708">
          <path id="Path_5213" data-name="Path 5213" class="cls-1" d="M363.06,349.734c0-.041-.008-.082-.012-.123C363.052,349.652,363.055,349.693,363.06,349.734Z" transform="translate(-363.048 -349.611)"/>
        </g>
      </g>
      <g id="Group_1711" data-name="Group 1711" transform="translate(26.87 26.193)">
        <g id="Group_1710" data-name="Group 1710">
          <path id="Path_5214" data-name="Path 5214" class="cls-1" d="M363.584,354.645c0-.035-.008-.07-.012-.105C363.576,354.575,363.58,354.61,363.584,354.645Z" transform="translate(-363.572 -354.54)"/>
        </g>
      </g>
      <g id="Group_1713" data-name="Group 1713" transform="translate(10.592 19.309)">
        <g id="Group_1712" data-name="Group 1712">
          <path id="Path_5215" data-name="Path 5215" class="cls-1" d="M143.233,261.359c.009.039.017.079.026.119C143.25,261.438,143.242,261.4,143.233,261.359Z" transform="translate(-143.233 -261.359)"/>
        </g>
      </g>
      <g id="Group_1715" data-name="Group 1715" transform="translate(26.797 25.445)">
        <g id="Group_1714" data-name="Group 1714">
          <path id="Path_5216" data-name="Path 5216" class="cls-1" d="M362.6,344.573c0-.053-.008-.106-.012-.159C362.6,344.467,362.6,344.52,362.6,344.573Z" transform="translate(-362.592 -344.414)"/>
        </g>
      </g>
      <g id="Group_1717" data-name="Group 1717" transform="translate(10.456 18.759)">
        <g id="Group_1716" data-name="Group 1716">
          <path id="Path_5217" data-name="Path 5217" class="cls-1" d="M141.4,253.909c.011.044.021.088.033.132C141.417,254,141.406,253.953,141.4,253.909Z" transform="translate(-141.395 -253.909)"/>
        </g>
      </g>
      <g id="Group_1719" data-name="Group 1719" transform="translate(11.003 25.829)">
        <g id="Group_1718" data-name="Group 1718">
          <path id="Path_5218" data-name="Path 5218" class="cls-1" d="M148.807,349.611c0,.041-.007.082-.012.123C148.8,349.693,148.8,349.652,148.807,349.611Z" transform="translate(-148.795 -349.611)"/>
        </g>
      </g>
      <g id="Group_1721" data-name="Group 1721" transform="translate(26.964 26.898)">
        <g id="Group_1720" data-name="Group 1720">
          <path id="Path_5219" data-name="Path 5219" class="cls-1" d="M364.858,364.165c0-.03-.009-.061-.013-.091C364.849,364.1,364.854,364.135,364.858,364.165Z" transform="translate(-364.845 -364.074)"/>
        </g>
      </g>
      <g id="Group_1723" data-name="Group 1723" transform="translate(37.805 19.663)">
        <g id="Group_1722" data-name="Group 1722">
          <path id="Path_5220" data-name="Path 5220" class="cls-1" d="M511.593,266.448h0c.006-.1.01-.2.014-.306h0C511.6,266.244,511.6,266.346,511.593,266.448Z" transform="translate(-511.593 -266.142)"/>
        </g>
      </g>
      <g id="Group_1725" data-name="Group 1725" transform="translate(27.025 27.278)">
        <g id="Group_1724" data-name="Group 1724">
          <path id="Path_5221" data-name="Path 5221" class="cls-1" d="M365.684,369.283c0-.018-.006-.036-.009-.053C365.678,369.248,365.681,369.266,365.684,369.283Z" transform="translate(-365.675 -369.23)"/>
        </g>
      </g>
      <g id="Group_1727" data-name="Group 1727" transform="translate(10.817 20.423)">
        <g id="Group_1726" data-name="Group 1726">
          <path id="Path_5222" data-name="Path 5222" class="cls-1" d="M146.282,276.431c.012.069.022.139.033.209C146.3,276.57,146.294,276.5,146.282,276.431Z" transform="translate(-146.282 -276.431)"/>
        </g>
      </g>
      <g id="Group_1729" data-name="Group 1729" transform="translate(10.964 26.193)">
        <g id="Group_1728" data-name="Group 1728">
          <path id="Path_5223" data-name="Path 5223" class="cls-1" d="M148.28,354.539c0,.035-.008.07-.012.105C148.272,354.609,148.276,354.574,148.28,354.539Z" transform="translate(-148.268 -354.539)"/>
        </g>
      </g>
      <g id="Group_1731" data-name="Group 1731" transform="translate(10.749 27.61)">
        <g id="Group_1730" data-name="Group 1730">
          <path id="Path_5224" data-name="Path 5224" class="cls-1" d="M145.372,373.721l-.012.063Z" transform="translate(-145.36 -373.721)"/>
        </g>
      </g>
      <g id="Group_1733" data-name="Group 1733" transform="translate(10.681 27.988)">
        <g id="Group_1732" data-name="Group 1732">
          <path id="Path_5225" data-name="Path 5225" class="cls-1" d="M144.441,378.839l-.005.025Z" transform="translate(-144.436 -378.839)"/>
        </g>
      </g>
      <g id="Group_1735" data-name="Group 1735" transform="translate(11.084 24.716)">
        <g id="Group_1734" data-name="Group 1734">
          <path id="Path_5226" data-name="Path 5226" class="cls-1" d="M149.9,334.55c0,.063,0,.125-.008.188C149.9,334.675,149.9,334.612,149.9,334.55Z" transform="translate(-149.893 -334.55)"/>
        </g>
      </g>
      <g id="Group_1737" data-name="Group 1737" transform="translate(11.063 25.073)">
        <g id="Group_1736" data-name="Group 1736">
          <path id="Path_5227" data-name="Path 5227" class="cls-1" d="M149.619,339.381c0,.06-.007.121-.011.181C149.612,339.5,149.615,339.441,149.619,339.381Z" transform="translate(-149.608 -339.381)"/>
        </g>
      </g>
      <g id="Group_1739" data-name="Group 1739" transform="translate(10.812 27.279)">
        <g id="Group_1738" data-name="Group 1738">
          <path id="Path_5228" data-name="Path 5228" class="cls-1" d="M146.216,369.23c0,.018-.006.036-.009.053Z" transform="translate(-146.207 -369.23)"/>
        </g>
      </g>
      <g id="Group_1741" data-name="Group 1741" transform="translate(5.005 0.001)">
        <g id="Group_1740" data-name="Group 1740">
          <path id="Path_5229" data-name="Path 5229" class="cls-1" d="M95.449,6.122a18.883,18.883,0,0,0-27.835,0A22.616,22.616,0,0,1,72.832,35.7a18.883,18.883,0,0,0,17.4,0,22.616,22.616,0,0,1,5.218-29.58Z" transform="translate(-67.614 -0.001)"/>
        </g>
      </g>
      <g id="Group_1743" data-name="Group 1743" transform="translate(10.868 26.898)">
        <g id="Group_1742" data-name="Group 1742">
          <path id="Path_5230" data-name="Path 5230" class="cls-1" d="M146.986,364.075c0,.03-.009.061-.013.091C146.978,364.136,146.982,364.105,146.986,364.075Z" transform="translate(-146.973 -364.075)"/>
        </g>
      </g>
      <g id="Group_1745" data-name="Group 1745" transform="translate(11.036 25.445)">
        <g id="Group_1744" data-name="Group 1744">
          <path id="Path_5231" data-name="Path 5231" class="cls-1" d="M149.254,344.413c0,.053-.008.106-.012.159C149.247,344.519,149.25,344.466,149.254,344.413Z" transform="translate(-149.242 -344.413)"/>
        </g>
      </g>
      <g id="Group_1747" data-name="Group 1747" transform="translate(10.919 26.544)">
        <g id="Group_1746" data-name="Group 1746">
          <path id="Path_5232" data-name="Path 5232" class="cls-1" d="M147.673,359.292c0,.033-.008.067-.013.1C147.665,359.359,147.669,359.325,147.673,359.292Z" transform="translate(-147.66 -359.292)"/>
        </g>
      </g>
      <g id="Group_1749" data-name="Group 1749" transform="translate(26.772 25.073)">
        <g id="Group_1748" data-name="Group 1748">
          <path id="Path_5233" data-name="Path 5233" class="cls-1" d="M362.256,339.563c0-.06-.007-.121-.011-.181C362.249,339.442,362.252,339.5,362.256,339.563Z" transform="translate(-362.245 -339.382)"/>
        </g>
      </g>
      <g id="Group_1751" data-name="Group 1751" transform="translate(11.078 22.694)">
        <g id="Group_1750" data-name="Group 1750">
          <path id="Path_5234" data-name="Path 5234" class="cls-1" d="M149.812,307.176c.006.1.009.2.013.308C149.821,307.381,149.818,307.278,149.812,307.176Z" transform="translate(-149.812 -307.176)"/>
        </g>
      </g>
      <g id="Group_1753" data-name="Group 1753" transform="translate(11.103 23.269)">
        <g id="Group_1752" data-name="Group 1752">
          <path id="Path_5235" data-name="Path 5235" class="cls-1" d="M150.149,314.964q.008.288.008.578Q150.157,315.252,150.149,314.964Z" transform="translate(-150.149 -314.964)"/>
        </g>
      </g>
      <g id="Group_1755" data-name="Group 1755" transform="translate(11.037 22.122)">
        <g id="Group_1754" data-name="Group 1754">
          <path id="Path_5236" data-name="Path 5236" class="cls-1" d="M149.257,299.426c.009.1.014.2.021.3C149.271,299.623,149.265,299.524,149.257,299.426Z" transform="translate(-149.257 -299.426)"/>
        </g>
      </g>
      <g id="Group_1757" data-name="Group 1757" transform="translate(10.349 29.349)">
        <g id="Group_1756" data-name="Group 1756">
          <path id="Path_5237" data-name="Path 5237" class="cls-1" d="M139.95,397.253l0,.01Z" transform="translate(-139.947 -397.253)"/>
        </g>
      </g>
      <g id="Group_1759" data-name="Group 1759" transform="translate(11.099 24.372)">
        <g id="Group_1758" data-name="Group 1758">
          <path id="Path_5238" data-name="Path 5238" class="cls-1" d="M150.1,329.884c0,.06,0,.121,0,.181C150.1,330,150.1,329.944,150.1,329.884Z" transform="translate(-150.098 -329.884)"/>
        </g>
      </g>
      <g id="Group_1761" data-name="Group 1761" transform="translate(10.607 28.338)">
        <g id="Group_1760" data-name="Group 1760">
          <path id="Path_5239" data-name="Path 5239" class="cls-1" d="M143.434,383.575l0,.014Z" transform="translate(-143.431 -383.575)"/>
        </g>
      </g>
      <g id="Group_1763" data-name="Group 1763" transform="translate(10.527 28.671)">
        <g id="Group_1762" data-name="Group 1762">
          <path id="Path_5240" data-name="Path 5240" class="cls-1" d="M142.353,388.075l0,.019Z" transform="translate(-142.349 -388.075)"/>
        </g>
      </g>
      <g id="Group_1765" data-name="Group 1765" transform="translate(11.108 23.847)">
        <g id="Group_1764" data-name="Group 1764">
          <path id="Path_5241" data-name="Path 5241" class="cls-1" d="M150.222,322.783q0,.177,0,.353Q150.222,322.96,150.222,322.783Z" transform="translate(-150.219 -322.783)"/>
        </g>
      </g>
      <g id="Group_1767" data-name="Group 1767" transform="translate(10.441 29.024)">
        <g id="Group_1766" data-name="Group 1766">
          <path id="Path_5242" data-name="Path 5242" class="cls-1" d="M141.187,392.851h0Z" transform="translate(-141.187 -392.851)"/>
        </g>
      </g>
      <g id="Group_1769" data-name="Group 1769" transform="translate(10.712 19.864)">
        <g id="Group_1768" data-name="Group 1768">
          <path id="Path_5243" data-name="Path 5243" class="cls-1" d="M144.862,268.864c.012.062.023.124.035.186C144.885,268.988,144.874,268.926,144.862,268.864Z" transform="translate(-144.862 -268.864)"/>
        </g>
      </g>
      <g id="Group_1771" data-name="Group 1771" transform="translate(27.512 18.214)">
        <g id="Group_1770" data-name="Group 1770">
          <path id="Path_5244" data-name="Path 5244" class="cls-1" d="M372.261,246.63c.01-.034.019-.069.029-.1C372.28,246.561,372.271,246.6,372.261,246.63Z" transform="translate(-372.261 -246.527)"/>
        </g>
      </g>
      <g id="Group_1773" data-name="Group 1773" transform="translate(27.682 17.673)">
        <g id="Group_1772" data-name="Group 1772">
          <path id="Path_5245" data-name="Path 5245" class="cls-1" d="M374.559,239.3c.009-.027.016-.054.025-.081C374.575,239.242,374.568,239.269,374.559,239.3Z" transform="translate(-374.559 -239.215)"/>
        </g>
      </g>
      <g id="Group_1775" data-name="Group 1775" transform="translate(27.862 17.138)">
        <g id="Group_1774" data-name="Group 1774">
          <path id="Path_5246" data-name="Path 5246" class="cls-1" d="M377,232.046l.025-.074Z" transform="translate(-377.004 -231.972)"/>
        </g>
      </g>
      <g id="Group_1777" data-name="Group 1777" transform="translate(9.328 15.569)">
        <g id="Group_1776" data-name="Group 1776">
          <path id="Path_5247" data-name="Path 5247" class="cls-1" d="M126.122,210.733l.007.016Z" transform="translate(-126.122 -210.733)"/>
        </g>
      </g>
      <g id="Group_1779" data-name="Group 1779" transform="translate(9.089 15.059)">
        <g id="Group_1778" data-name="Group 1778">
          <path id="Path_5248" data-name="Path 5248" class="cls-1" d="M122.889,203.827l0,.008Z" transform="translate(-122.889 -203.827)"/>
        </g>
      </g>
      <g id="Group_1781" data-name="Group 1781" transform="translate(27.357 18.759)">
        <g id="Group_1780" data-name="Group 1780">
          <path id="Path_5249" data-name="Path 5249" class="cls-1" d="M370.163,254.041c.011-.044.021-.088.033-.132C370.184,253.953,370.174,254,370.163,254.041Z" transform="translate(-370.163 -253.909)"/>
        </g>
      </g>
      <g id="Group_1783" data-name="Group 1783" transform="translate(27.098 19.864)">
        <g id="Group_1782" data-name="Group 1782">
          <path id="Path_5250" data-name="Path 5250" class="cls-1" d="M366.665,269.05c.012-.062.022-.124.035-.186C366.687,268.926,366.677,268.988,366.665,269.05Z" transform="translate(-366.665 -268.864)"/>
        </g>
      </g>
      <g id="Group_1785" data-name="Group 1785" transform="translate(0.034 17.943)">
        <g id="Group_1784" data-name="Group 1784">
          <path id="Path_5251" data-name="Path 5251" class="cls-1" d="M.321,242.892h0v-.022C.322,242.877.321,242.885.321,242.892Z" transform="translate(-0.321 -242.87)"/>
        </g>
      </g>
      <g id="Group_1787" data-name="Group 1787" transform="translate(9.553 16.086)">
        <g id="Group_1786" data-name="Group 1786">
          <path id="Path_5252" data-name="Path 5252" class="cls-1" d="M129.164,217.73l.009.023Z" transform="translate(-129.164 -217.73)"/>
        </g>
      </g>
      <g id="Group_1789" data-name="Group 1789" transform="translate(27.228 19.309)">
        <g id="Group_1788" data-name="Group 1788">
          <path id="Path_5253" data-name="Path 5253" class="cls-1" d="M368.417,261.478c.009-.039.017-.079.026-.119C368.434,261.4,368.426,261.438,368.417,261.478Z" transform="translate(-368.417 -261.359)"/>
        </g>
      </g>
      <g id="Group_1791" data-name="Group 1791" transform="translate(0.01 18.913)">
        <g id="Group_1790" data-name="Group 1790">
          <path id="Path_5254" data-name="Path 5254" class="cls-1" d="M0,256c0,.179,0,.357.008.536C0,256.358,0,256.18,0,256Z" transform="translate(0 -256.001)"/>
        </g>
      </g>
      <g id="Group_1793" data-name="Group 1793" transform="translate(37.827 18.913)">
        <g id="Group_1792" data-name="Group 1792">
          <path id="Path_5255" data-name="Path 5255" class="cls-1" d="M511.891,256.536c0-.178.008-.357.008-.536C511.9,256.179,511.9,256.358,511.891,256.536Z" transform="translate(-511.891 -256)"/>
        </g>
      </g>
      <g id="Group_1796" data-name="Group 1796" transform="translate(0.026 19.663)">
        <g id="Group_1795" data-name="Group 1795">
          <g id="Group_1794" data-name="Group 1794">
            <path id="Path_5256" data-name="Path 5256" class="cls-1" d="M.219,266.143c0,.077.007.153.01.229,0-.076-.007-.153-.01-.229Z" transform="translate(-0.219 -266.143)"/>
            <path id="Path_5257" data-name="Path 5257" class="cls-1" d="M.362,269.325c0-.025,0-.051,0-.076,0,.025,0,.051,0,.076Z" transform="translate(-0.349 -269.02)"/>
          </g>
        </g>
      </g>
      <g id="Group_1798" data-name="Group 1798" transform="translate(28.064 16.609)">
        <g id="Group_1797" data-name="Group 1797">
          <path id="Path_5258" data-name="Path 5258" class="cls-1" d="M379.731,224.862l.019-.052Z" transform="translate(-379.731 -224.81)"/>
        </g>
      </g>
      <g id="Group_1800" data-name="Group 1800" transform="translate(28.753 15.059)">
        <g id="Group_1799" data-name="Group 1799">
          <path id="Path_5259" data-name="Path 5259" class="cls-1" d="M389.062,203.834l0-.008Z" transform="translate(-389.062 -203.826)"/>
        </g>
      </g>
      <g id="Group_1802" data-name="Group 1802" transform="translate(0.111 20.871)">
        <g id="Group_1801" data-name="Group 1801">
          <path id="Path_5260" data-name="Path 5260" class="cls-1" d="M1.368,282.507h0v0Z" transform="translate(-1.367 -282.499)"/>
        </g>
      </g>
      <g id="Group_1804" data-name="Group 1804" transform="translate(0.016 18.418)">
        <g id="Group_1803" data-name="Group 1803">
          <path id="Path_5261" data-name="Path 5261" class="cls-1" d="M.077,249.339h0c0-.016,0-.031,0-.047C.078,249.308.077,249.323.077,249.339Z" transform="translate(-0.077 -249.292)"/>
        </g>
      </g>
      <g id="Group_1806" data-name="Group 1806" transform="translate(28.284 16.086)">
        <g id="Group_1805" data-name="Group 1805">
          <path id="Path_5262" data-name="Path 5262" class="cls-1" d="M382.71,217.754l.009-.023Z" transform="translate(-382.71 -217.731)"/>
        </g>
      </g>
      <g id="Group_1808" data-name="Group 1808" transform="translate(26.995 20.423)">
        <g id="Group_1807" data-name="Group 1807">
          <path id="Path_5263" data-name="Path 5263" class="cls-1" d="M365.27,276.639c.011-.07.021-.139.033-.209C365.291,276.5,365.281,276.569,365.27,276.639Z" transform="translate(-365.27 -276.43)"/>
        </g>
      </g>
      <g id="Group_1810" data-name="Group 1810" transform="translate(28.511 15.569)">
        <g id="Group_1809" data-name="Group 1809">
          <path id="Path_5264" data-name="Path 5264" class="cls-1" d="M385.783,210.748l.007-.016Z" transform="translate(-385.783 -210.732)"/>
        </g>
      </g>
      <g id="Group_1812" data-name="Group 1812" transform="translate(0.059 20.257)">
        <g id="Group_1811" data-name="Group 1811">
          <path id="Path_5265" data-name="Path 5265" class="cls-1" d="M.654,274.19h0c0,.03,0,.059.007.088C.658,274.249.656,274.219.654,274.19Z" transform="translate(-0.654 -274.19)"/>
        </g>
      </g>
      <g id="Group_1814" data-name="Group 1814" transform="translate(9.958 17.138)">
        <g id="Group_1813" data-name="Group 1813">
          <path id="Path_5266" data-name="Path 5266" class="cls-1" d="M134.656,231.973c.009.025.017.05.025.074C134.672,232.023,134.665,232,134.656,231.973Z" transform="translate(-134.656 -231.973)"/>
        </g>
      </g>
      <g id="Group_1816" data-name="Group 1816" transform="translate(26.843 21.552)">
        <g id="Group_1815" data-name="Group 1815">
          <path id="Path_5267" data-name="Path 5267" class="cls-1" d="M363.214,291.939c.008-.075.014-.15.023-.224C363.228,291.79,363.222,291.865,363.214,291.939Z" transform="translate(-363.214 -291.715)"/>
        </g>
      </g>
      <g id="Group_1818" data-name="Group 1818" transform="translate(10.305 18.214)">
        <g id="Group_1817" data-name="Group 1817">
          <path id="Path_5268" data-name="Path 5268" class="cls-1" d="M139.353,246.528c.01.034.019.069.029.1C139.372,246.6,139.363,246.562,139.353,246.528Z" transform="translate(-139.353 -246.528)"/>
        </g>
      </g>
      <g id="Group_1820" data-name="Group 1820" transform="translate(26.734 23.847)">
        <g id="Group_1819" data-name="Group 1819">
          <path id="Path_5269" data-name="Path 5269" class="cls-1" d="M361.742,323.136q0-.176,0-.353Q361.739,322.96,361.742,323.136Z" transform="translate(-361.739 -322.783)"/>
        </g>
      </g>
      <g id="Group_1822" data-name="Group 1822" transform="translate(26.742 24.372)">
        <g id="Group_1821" data-name="Group 1821">
          <path id="Path_5270" data-name="Path 5270" class="cls-1" d="M361.845,330.064c0-.06,0-.121,0-.181C361.842,329.943,361.843,330,361.845,330.064Z" transform="translate(-361.84 -329.883)"/>
        </g>
      </g>
      <g id="Group_1824" data-name="Group 1824" transform="translate(26.787 22.122)">
        <g id="Group_1823" data-name="Group 1823">
          <path id="Path_5271" data-name="Path 5271" class="cls-1" d="M362.456,299.722c.007-.1.013-.2.021-.3C362.469,299.524,362.463,299.623,362.456,299.722Z" transform="translate(-362.456 -299.426)"/>
        </g>
      </g>
      <g id="Group_1826" data-name="Group 1826" transform="translate(26.754 22.694)">
        <g id="Group_1825" data-name="Group 1825">
          <path id="Path_5272" data-name="Path 5272" class="cls-1" d="M362.008,307.483c0-.1.007-.205.013-.308C362.015,307.277,362.012,307.38,362.008,307.483Z" transform="translate(-362.008 -307.175)"/>
        </g>
      </g>
      <g id="Group_1828" data-name="Group 1828" transform="translate(26.734 23.27)">
        <g id="Group_1827" data-name="Group 1827">
          <path id="Path_5273" data-name="Path 5273" class="cls-1" d="M361.739,315.543q0-.289.008-.578Q361.739,315.253,361.739,315.543Z" transform="translate(-361.739 -314.965)"/>
        </g>
      </g>
      <g id="Group_1830" data-name="Group 1830" transform="translate(9.763 16.609)">
        <g id="Group_1829" data-name="Group 1829">
          <path id="Path_5274" data-name="Path 5274" class="cls-1" d="M132.008,224.811l.019.052Z" transform="translate(-132.008 -224.811)"/>
        </g>
      </g>
      <g id="Group_1832" data-name="Group 1832" transform="translate(26.753 24.716)">
        <g id="Group_1831" data-name="Group 1831">
          <path id="Path_5275" data-name="Path 5275" class="cls-1" d="M362.005,334.738c0-.062-.005-.125-.008-.188C362,334.612,362,334.675,362.005,334.738Z" transform="translate(-361.997 -334.55)"/>
        </g>
      </g>
      <g id="Group_1834" data-name="Group 1834" transform="translate(26.907 20.985)">
        <g id="Group_1833" data-name="Group 1833">
          <path id="Path_5276" data-name="Path 5276" class="cls-1" d="M364.081,284.292c.011-.082.02-.164.032-.246C364.1,284.128,364.092,284.21,364.081,284.292Z" transform="translate(-364.081 -284.046)"/>
        </g>
      </g>
      <g id="Group_1836" data-name="Group 1836" transform="translate(10.139 17.673)">
        <g id="Group_1835" data-name="Group 1835">
          <path id="Path_5277" data-name="Path 5277" class="cls-1" d="M137.105,239.214c.009.027.016.054.025.081C137.121,239.268,137.114,239.241,137.105,239.214Z" transform="translate(-137.105 -239.214)"/>
        </g>
      </g>
      <g id="Group_1838" data-name="Group 1838" transform="translate(10.164 17.754)">
        <g id="Group_1837" data-name="Group 1837">
          <path id="Path_5278" data-name="Path 5278" class="cls-1" d="M137.441,240.306c.049.153.1.306.141.46C137.537,240.612,137.489,240.459,137.441,240.306Z" transform="translate(-137.441 -240.306)"/>
        </g>
      </g>
      <g id="Group_1840" data-name="Group 1840" transform="translate(0.01 18.465)">
        <g id="Group_1839" data-name="Group 1839">
          <path id="Path_5279" data-name="Path 5279" class="cls-1" d="M0,250.376c0-.15,0-.3.006-.449C0,250.076,0,250.226,0,250.376Z" transform="translate(0 -249.927)"/>
        </g>
      </g>
      <g id="Group_1842" data-name="Group 1842" transform="translate(11.014 25.604)">
        <g id="Group_1841" data-name="Group 1841">
          <path id="Path_5280" data-name="Path 5280" class="cls-1" d="M148.974,346.561c-.007.075-.014.15-.021.225C148.96,346.711,148.968,346.636,148.974,346.561Z" transform="translate(-148.953 -346.561)"/>
        </g>
      </g>
      <g id="Group_1844" data-name="Group 1844" transform="translate(11.074 24.904)">
        <g id="Group_1843" data-name="Group 1843">
          <path id="Path_5281" data-name="Path 5281" class="cls-1" d="M149.766,337.09c0,.056-.007.113-.01.169C149.759,337.2,149.763,337.147,149.766,337.09Z" transform="translate(-149.756 -337.09)"/>
        </g>
      </g>
      <g id="Group_1846" data-name="Group 1846" transform="translate(10.334 18.317)">
        <g id="Group_1845" data-name="Group 1845">
          <path id="Path_5282" data-name="Path 5282" class="cls-1" d="M139.739,247.924c.042.147.084.294.122.442C139.823,248.218,139.781,248.071,139.739,247.924Z" transform="translate(-139.739 -247.924)"/>
        </g>
      </g>
      <g id="Group_1848" data-name="Group 1848" transform="translate(11.092 24.553)">
        <g id="Group_1847" data-name="Group 1847">
          <path id="Path_5283" data-name="Path 5283" class="cls-1" d="M150.009,332.331c0,.055,0,.109-.007.164C150,332.44,150.007,332.386,150.009,332.331Z" transform="translate(-150.002 -332.331)"/>
        </g>
      </g>
      <g id="Group_1850" data-name="Group 1850" transform="translate(0.04 19.969)">
        <g id="Group_1849" data-name="Group 1849">
          <path id="Path_5284" data-name="Path 5284" class="cls-1" d="M.424,270.572q-.01-.144-.018-.289C.411,270.379.418,270.476.424,270.572Z" transform="translate(-0.406 -270.283)"/>
        </g>
      </g>
      <g id="Group_1852" data-name="Group 1852" transform="translate(11.048 25.254)">
        <g id="Group_1851" data-name="Group 1851">
          <path id="Path_5285" data-name="Path 5285" class="cls-1" d="M149.423,341.831c0,.064-.01.127-.015.191C149.413,341.958,149.418,341.895,149.423,341.831Z" transform="translate(-149.408 -341.831)"/>
        </g>
      </g>
      <g id="Group_1854" data-name="Group 1854" transform="translate(10.489 18.891)">
        <g id="Group_1853" data-name="Group 1853">
          <path id="Path_5286" data-name="Path 5286" class="cls-1" d="M141.837,255.7c.035.139.071.278.1.418C141.908,255.975,141.872,255.836,141.837,255.7Z" transform="translate(-141.837 -255.697)"/>
        </g>
      </g>
      <g id="Group_1856" data-name="Group 1856" transform="translate(10.85 20.631)">
        <g id="Group_1855" data-name="Group 1855">
          <path id="Path_5287" data-name="Path 5287" class="cls-1" d="M146.729,279.254c.019.118.039.236.056.354C146.768,279.49,146.748,279.372,146.729,279.254Z" transform="translate(-146.729 -279.254)"/>
        </g>
      </g>
      <g id="Group_1858" data-name="Group 1858" transform="translate(10.618 19.428)">
        <g id="Group_1857" data-name="Group 1857">
          <path id="Path_5288" data-name="Path 5288" class="cls-1" d="M143.582,262.965c.033.145.065.29.095.436C143.647,263.255,143.615,263.11,143.582,262.965Z" transform="translate(-143.582 -262.965)"/>
        </g>
      </g>
      <g id="Group_1860" data-name="Group 1860" transform="translate(9.782 16.661)">
        <g id="Group_1859" data-name="Group 1859">
          <path id="Path_5289" data-name="Path 5289" class="cls-1" d="M132.269,225.516c.061.158.12.317.176.477C132.389,225.833,132.33,225.674,132.269,225.516Z" transform="translate(-132.269 -225.516)"/>
        </g>
      </g>
      <g id="Group_1862" data-name="Group 1862" transform="translate(10.938 21.232)">
        <g id="Group_1861" data-name="Group 1861">
          <path id="Path_5290" data-name="Path 5290" class="cls-1" d="M147.919,287.378c.014.107.029.213.042.32C147.948,287.591,147.933,287.485,147.919,287.378Z" transform="translate(-147.919 -287.378)"/>
        </g>
      </g>
      <g id="Group_1864" data-name="Group 1864" transform="translate(11.002 21.776)">
        <g id="Group_1863" data-name="Group 1863">
          <path id="Path_5291" data-name="Path 5291" class="cls-1" d="M148.786,294.749c.012.115.025.23.035.345C148.811,294.979,148.8,294.864,148.786,294.749Z" transform="translate(-148.786 -294.749)"/>
        </g>
      </g>
      <g id="Group_1866" data-name="Group 1866" transform="translate(11.058 22.418)">
        <g id="Group_1865" data-name="Group 1865">
          <path id="Path_5292" data-name="Path 5292" class="cls-1" d="M149.544,303.436c.007.092.015.184.02.276C149.559,303.62,149.551,303.528,149.544,303.436Z" transform="translate(-149.544 -303.436)"/>
        </g>
      </g>
      <g id="Group_1868" data-name="Group 1868" transform="translate(9.562 16.109)">
        <g id="Group_1867" data-name="Group 1867">
          <path id="Path_5293" data-name="Path 5293" class="cls-1" d="M129.29,218.045q.1.249.2.5Q129.394,218.293,129.29,218.045Z" transform="translate(-129.29 -218.045)"/>
        </g>
      </g>
      <g id="Group_1870" data-name="Group 1870" transform="translate(9.335 15.585)">
        <g id="Group_1869" data-name="Group 1869">
          <path id="Path_5294" data-name="Path 5294" class="cls-1" d="M126.217,210.95q.112.249.218.5Q126.329,211.2,126.217,210.95Z" transform="translate(-126.217 -210.95)"/>
        </g>
      </g>
      <g id="Group_1872" data-name="Group 1872" transform="translate(9.983 17.212)">
        <g id="Group_1871" data-name="Group 1871">
          <path id="Path_5295" data-name="Path 5295" class="cls-1" d="M135,232.976c.053.153.106.306.156.461C135.1,233.282,135.049,233.129,135,232.976Z" transform="translate(-134.996 -232.976)"/>
        </g>
      </g>
      <g id="Group_1874" data-name="Group 1874" transform="translate(11.104 24.2)">
        <g id="Group_1873" data-name="Group 1873">
          <path id="Path_5296" data-name="Path 5296" class="cls-1" d="M150.165,327.563c0,.057,0,.114,0,.171C150.162,327.677,150.164,327.62,150.165,327.563Z" transform="translate(-150.161 -327.563)"/>
        </g>
      </g>
      <g id="Group_1876" data-name="Group 1876" transform="translate(11.091 23.002)">
        <g id="Group_1875" data-name="Group 1875">
          <path id="Path_5297" data-name="Path 5297" class="cls-1" d="M149.992,311.338c0,.089.009.178.012.268C150,311.516,150,311.427,149.992,311.338Z" transform="translate(-149.992 -311.338)"/>
        </g>
      </g>
      <g id="Group_1878" data-name="Group 1878" transform="translate(9.093 15.067)">
        <g id="Group_1877" data-name="Group 1877">
          <path id="Path_5298" data-name="Path 5298" class="cls-1" d="M122.938,203.93q.121.25.235.5Q123.059,204.18,122.938,203.93Z" transform="translate(-122.938 -203.93)"/>
        </g>
      </g>
      <g id="Group_1880" data-name="Group 1880" transform="translate(10.747 20.05)">
        <g id="Group_1879" data-name="Group 1879">
          <path id="Path_5299" data-name="Path 5299" class="cls-1" d="M145.335,271.383c.024.124.048.248.07.373C145.383,271.631,145.359,271.507,145.335,271.383Z" transform="translate(-145.335 -271.383)"/>
        </g>
      </g>
      <g id="Group_1882" data-name="Group 1882" transform="translate(37.819 19.449)">
        <g id="Group_1881" data-name="Group 1881">
          <path id="Path_5300" data-name="Path 5300" class="cls-1" d="M511.781,263.465c0-.071.006-.142.008-.213h0C511.787,263.322,511.784,263.393,511.781,263.465Z" transform="translate(-511.781 -263.251)"/>
        </g>
      </g>
      <g id="Group_1884" data-name="Group 1884" transform="translate(26.809 21.776)">
        <g id="Group_1883" data-name="Group 1883">
          <path id="Path_5301" data-name="Path 5301" class="cls-1" d="M362.743,295.1c.01-.116.023-.23.035-.345C362.766,294.866,362.753,294.981,362.743,295.1Z" transform="translate(-362.743 -294.751)"/>
        </g>
      </g>
      <g id="Group_1886" data-name="Group 1886" transform="translate(26.743 23.002)">
        <g id="Group_1885" data-name="Group 1885">
          <path id="Path_5302" data-name="Path 5302" class="cls-1" d="M361.851,311.606c0-.09.008-.179.012-.268C361.859,311.427,361.854,311.516,361.851,311.606Z" transform="translate(-361.851 -311.338)"/>
        </g>
      </g>
      <g id="Group_1888" data-name="Group 1888" transform="translate(27.133 19.428)">
        <g id="Group_1887" data-name="Group 1887">
          <path id="Path_5303" data-name="Path 5303" class="cls-1" d="M367.138,263.4c.03-.146.062-.291.095-.436C367.2,263.109,367.167,263.254,367.138,263.4Z" transform="translate(-367.138 -262.964)"/>
        </g>
      </g>
      <g id="Group_1890" data-name="Group 1890" transform="translate(26.768 22.418)">
        <g id="Group_1889" data-name="Group 1889">
          <path id="Path_5304" data-name="Path 5304" class="cls-1" d="M362.187,303.712c.005-.092.013-.184.02-.276C362.2,303.528,362.192,303.62,362.187,303.712Z" transform="translate(-362.187 -303.436)"/>
        </g>
      </g>
      <g id="Group_1892" data-name="Group 1892" transform="translate(27.028 20.05)">
        <g id="Group_1891" data-name="Group 1891">
          <path id="Path_5305" data-name="Path 5305" class="cls-1" d="M365.718,271.756c.022-.125.046-.249.07-.373C365.764,271.507,365.74,271.631,365.718,271.756Z" transform="translate(-365.718 -271.383)"/>
        </g>
      </g>
      <g id="Group_1894" data-name="Group 1894" transform="translate(26.939 20.631)">
        <g id="Group_1893" data-name="Group 1893">
          <path id="Path_5306" data-name="Path 5306" class="cls-1" d="M364.512,279.608c.017-.118.037-.236.056-.354C364.549,279.372,364.529,279.49,364.512,279.608Z" transform="translate(-364.512 -279.254)"/>
        </g>
      </g>
      <g id="Group_1896" data-name="Group 1896" transform="translate(26.866 21.232)">
        <g id="Group_1895" data-name="Group 1895">
          <path id="Path_5307" data-name="Path 5307" class="cls-1" d="M363.519,287.7c.012-.107.027-.214.042-.32C363.546,287.485,363.531,287.591,363.519,287.7Z" transform="translate(-363.519 -287.378)"/>
        </g>
      </g>
      <g id="Group_1898" data-name="Group 1898" transform="translate(26.783 25.254)">
        <g id="Group_1897" data-name="Group 1897">
          <path id="Path_5308" data-name="Path 5308" class="cls-1" d="M362.407,342.022c0-.064-.01-.127-.015-.191C362.4,341.895,362.4,341.958,362.407,342.022Z" transform="translate(-362.392 -341.831)"/>
        </g>
      </g>
      <g id="Group_1900" data-name="Group 1900" transform="translate(26.81 25.604)">
        <g id="Group_1899" data-name="Group 1899">
          <path id="Path_5309" data-name="Path 5309" class="cls-1" d="M362.779,346.785c-.007-.075-.015-.15-.021-.225C362.764,346.635,362.772,346.71,362.779,346.785Z" transform="translate(-362.758 -346.56)"/>
        </g>
      </g>
      <g id="Group_1902" data-name="Group 1902" transform="translate(26.762 24.904)">
        <g id="Group_1901" data-name="Group 1901">
          <path id="Path_5310" data-name="Path 5310" class="cls-1" d="M362.118,337.258c0-.056-.007-.113-.01-.169C362.111,337.146,362.115,337.2,362.118,337.258Z" transform="translate(-362.108 -337.089)"/>
        </g>
      </g>
      <g id="Group_1904" data-name="Group 1904" transform="translate(26.737 24.2)">
        <g id="Group_1903" data-name="Group 1903">
          <path id="Path_5311" data-name="Path 5311" class="cls-1" d="M361.784,327.735c0-.057,0-.114,0-.171C361.781,327.621,361.783,327.678,361.784,327.735Z" transform="translate(-361.78 -327.564)"/>
        </g>
      </g>
      <g id="Group_1906" data-name="Group 1906" transform="translate(26.747 24.553)">
        <g id="Group_1905" data-name="Group 1905">
          <path id="Path_5312" data-name="Path 5312" class="cls-1" d="M361.91,332.5c0-.055-.005-.109-.007-.164C361.9,332.387,361.908,332.441,361.91,332.5Z" transform="translate(-361.903 -332.332)"/>
        </g>
      </g>
      <g id="Group_1909" data-name="Group 1909" transform="translate(28.757 8.036)">
        <g id="Group_1908" data-name="Group 1908">
          <g id="Group_1907" data-name="Group 1907">
            <path id="Path_5313" data-name="Path 5313" class="cls-1" d="M389.363,197.011q-.13.25-.253.5Q389.233,197.261,389.363,197.011Z" transform="translate(-389.11 -190.492)"/>
            <path id="Path_5314" data-name="Path 5314" class="cls-1" d="M459.329,109.548q.2-.17.412-.335Q459.533,109.378,459.329,109.548Z" transform="translate(-454.141 -109.18)"/>
            <path id="Path_5315" data-name="Path 5315" class="cls-1" d="M459.107,113.768l.016-.014Z" transform="translate(-453.936 -113.386)"/>
            <path id="Path_5316" data-name="Path 5316" class="cls-1" d="M395.828,190.3l-.026.048Z" transform="translate(-395.308 -184.273)"/>
            <path id="Path_5317" data-name="Path 5317" class="cls-1" d="M392.778,190.942c-.082.149-.163.3-.241.448C392.615,191.24,392.7,191.091,392.778,190.942Z" transform="translate(-392.284 -184.871)"/>
            <path id="Path_5318" data-name="Path 5318" class="cls-1" d="M396.15,119.587a20.19,20.19,0,0,1,4.651-5.641A20.188,20.188,0,0,0,396.15,119.587Z" transform="translate(-395.63 -113.564)"/>
            <path id="Path_5319" data-name="Path 5319" class="cls-1" d="M511.679,243.192c.007.132.011.265.015.4Q511.688,243.39,511.679,243.192Z" transform="translate(-502.624 -233.261)"/>
            <path id="Path_5320" data-name="Path 5320" class="cls-1" d="M511.883,248.574h0c0,.031,0,.062,0,.093C511.885,248.635,511.884,248.6,511.883,248.574Z" transform="translate(-502.813 -238.245)"/>
            <path id="Path_5321" data-name="Path 5321" class="cls-1" d="M464.935,108.842l-.034.027.034-.027Z" transform="translate(-459.302 -108.837)"/>
            <path id="Path_5322" data-name="Path 5322" class="cls-1" d="M511.925,250.289c0-.152,0-.3-.006-.456,0,0,0,0,0,.007C511.923,249.989,511.925,250.139,511.925,250.289Z" transform="translate(-502.846 -239.412)"/>
            <path id="Path_5323" data-name="Path 5323" class="cls-1" d="M511.654,242.668l0-.036v0l0,.042S511.654,242.668,511.654,242.668Z" transform="translate(-502.599 -232.739)"/>
            <path id="Path_5324" data-name="Path 5324" class="cls-1" d="M465.364,108.769l-.007.005a18.8,18.8,0,0,1,3.42,9.884A18.644,18.644,0,0,0,465.364,108.769Z" transform="translate(-459.724 -108.769)"/>
          </g>
        </g>
      </g>
      <g id="Group_1911" data-name="Group 1911" transform="translate(26.843 25.952)">
        <g id="Group_1910" data-name="Group 1910">
          <path id="Path_5325" data-name="Path 5325" class="cls-1" d="M363.231,351.511c-.009-.08-.019-.161-.027-.242C363.212,351.35,363.222,351.43,363.231,351.511Z" transform="translate(-363.204 -351.269)"/>
        </g>
      </g>
      <g id="Group_1913" data-name="Group 1913" transform="translate(28.293 15.585)">
        <g id="Group_1912" data-name="Group 1912">
          <path id="Path_5326" data-name="Path 5326" class="cls-1" d="M382.836,211.451q.105-.252.218-.5Q382.942,211.2,382.836,211.451Z" transform="translate(-382.836 -210.95)"/>
        </g>
      </g>
      <g id="Group_1915" data-name="Group 1915" transform="translate(28.518 15.067)">
        <g id="Group_1914" data-name="Group 1914">
          <path id="Path_5327" data-name="Path 5327" class="cls-1" d="M385.878,204.433q.114-.253.235-.5Q385.992,204.18,385.878,204.433Z" transform="translate(-385.878 -203.93)"/>
        </g>
      </g>
      <g id="Group_1918" data-name="Group 1918" transform="translate(37.739 19.969)">
        <g id="Group_1917" data-name="Group 1917">
          <g id="Group_1916" data-name="Group 1916">
            <path id="Path_5328" data-name="Path 5328" class="cls-1" d="M511.158,275.335c0-.036.005-.072.008-.108C511.163,275.263,511.161,275.3,511.158,275.335Z" transform="translate(-511.124 -274.862)"/>
            <path id="Path_5329" data-name="Path 5329" class="cls-1" d="M510.732,276.707v-.017q-.015.192-.034.383C510.711,276.951,510.722,276.829,510.732,276.707Z" transform="translate(-510.699 -276.217)"/>
            <path id="Path_5330" data-name="Path 5330" class="cls-1" d="M511.292,270.287c-.007.122-.015.243-.024.365,0-.026,0-.051.006-.077Q511.284,270.431,511.292,270.287Z" transform="translate(-511.226 -270.287)"/>
          </g>
        </g>
      </g>
      <g id="Group_1921" data-name="Group 1921" transform="translate(27.496 20.88)">
        <g id="Group_1920" data-name="Group 1920">
          <g id="Group_1919" data-name="Group 1919">
            <path id="Path_5331" data-name="Path 5331" class="cls-1" d="M393.264,450.16q-.173-.3-.334-.608Q393.092,449.859,393.264,450.16Z" transform="translate(-391.388 -437.219)"/>
            <path id="Path_5332" data-name="Path 5332" class="cls-1" d="M392.926,449.546h0Z" transform="translate(-391.384 -437.213)"/>
            <path id="Path_5333" data-name="Path 5333" class="cls-1" d="M389,441.774q-.162-.308-.313-.62Q388.841,441.466,389,441.774Z" transform="translate(-387.461 -429.442)"/>
            <path id="Path_5334" data-name="Path 5334" class="cls-1" d="M397.453,457.79v0Z" transform="translate(-395.576 -444.847)"/>
            <path id="Path_5335" data-name="Path 5335" class="cls-1" d="M399.834,461.871v0Z" transform="translate(-397.781 -448.626)"/>
            <path id="Path_5336" data-name="Path 5336" class="cls-1" d="M400.028,462.192q-.089-.145-.176-.29Q399.939,462.048,400.028,462.192Z" transform="translate(-397.798 -448.657)"/>
            <path id="Path_5337" data-name="Path 5337" class="cls-1" d="M397.645,458.119q-.089-.149-.175-.3Q397.556,457.97,397.645,458.119Z" transform="translate(-395.592 -444.876)"/>
            <path id="Path_5338" data-name="Path 5338" class="cls-1" d="M388.649,441.067l0-.007Z" transform="translate(-387.42 -429.355)"/>
            <path id="Path_5339" data-name="Path 5339" class="cls-1" d="M402.242,465.842h0l-.005-.008Z" transform="translate(-400.007 -452.298)"/>
            <path id="Path_5340" data-name="Path 5340" class="cls-1" d="M372.149,397.722q-.05-.166-.1-.332Q372.1,397.557,372.149,397.722Z" transform="translate(-372.052 -388.911)"/>
            <path id="Path_5341" data-name="Path 5341" class="cls-1" d="M374.763,406.355h0Z" transform="translate(-374.563 -397.214)"/>
            <path id="Path_5342" data-name="Path 5342" class="cls-1" d="M373.473,402.216q-.053-.165-.1-.33Q373.42,402.052,373.473,402.216Z" transform="translate(-373.273 -393.075)"/>
            <path id="Path_5343" data-name="Path 5343" class="cls-1" d="M402.307,296.16l.005.009a18.752,18.752,0,0,0,8-13.553A18.924,18.924,0,0,1,402.307,296.16Z" transform="translate(-400.072 -282.616)"/>
            <path id="Path_5344" data-name="Path 5344" class="cls-1" d="M381.379,424.609q-.137-.311-.263-.626Q381.242,424.3,381.379,424.609Z" transform="translate(-380.446 -413.539)"/>
            <path id="Path_5345" data-name="Path 5345" class="cls-1" d="M375.23,407.65q-.255-.638-.466-1.293Q374.974,407.011,375.23,407.65Z" transform="translate(-374.564 -397.215)"/>
            <path id="Path_5346" data-name="Path 5346" class="cls-1" d="M385.04,433.252q-.149-.309-.288-.623Q384.89,432.943,385.04,433.252Z" transform="translate(-383.814 -421.547)"/>
            <path id="Path_5347" data-name="Path 5347" class="cls-1" d="M384.683,432.469l-.005-.013Z" transform="translate(-383.745 -421.386)"/>
            <path id="Path_5348" data-name="Path 5348" class="cls-1" d="M381.07,423.864l0-.01Z" transform="translate(-380.4 -413.42)"/>
          </g>
        </g>
      </g>
      <g id="Group_1923" data-name="Group 1923" transform="translate(27.887 16.661)">
        <g id="Group_1922" data-name="Group 1922">
          <path id="Path_5349" data-name="Path 5349" class="cls-1" d="M377.343,225.994c.057-.16.116-.319.176-.477C377.459,225.675,377.4,225.834,377.343,225.994Z" transform="translate(-377.343 -225.517)"/>
        </g>
      </g>
      <g id="Group_1925" data-name="Group 1925" transform="translate(10.976 25.952)">
        <g id="Group_1924" data-name="Group 1924">
          <path id="Path_5350" data-name="Path 5350" class="cls-1" d="M148.455,351.27c-.008.081-.018.161-.027.242C148.437,351.431,148.447,351.351,148.455,351.27Z" transform="translate(-148.428 -351.27)"/>
        </g>
      </g>
      <g id="Group_1927" data-name="Group 1927" transform="translate(27.54 17.754)">
        <g id="Group_1926" data-name="Group 1926">
          <path id="Path_5351" data-name="Path 5351" class="cls-1" d="M372.647,240.766c.045-.154.093-.307.141-.46C372.74,240.459,372.692,240.612,372.647,240.766Z" transform="translate(-372.647 -240.306)"/>
        </g>
      </g>
      <g id="Group_1929" data-name="Group 1929" transform="translate(27.254 18.891)">
        <g id="Group_1928" data-name="Group 1928">
          <path id="Path_5352" data-name="Path 5352" class="cls-1" d="M368.767,256.115c.032-.14.068-.279.1-.418C368.835,255.836,368.8,255.975,368.767,256.115Z" transform="translate(-368.767 -255.697)"/>
        </g>
      </g>
      <g id="Group_1931" data-name="Group 1931" transform="translate(28.083 16.109)">
        <g id="Group_1930" data-name="Group 1930">
          <path id="Path_5353" data-name="Path 5353" class="cls-1" d="M379.991,218.545q.1-.251.2-.5Q380.088,218.294,379.991,218.545Z" transform="translate(-379.991 -218.045)"/>
        </g>
      </g>
      <g id="Group_1933" data-name="Group 1933" transform="translate(27.706 17.212)">
        <g id="Group_1932" data-name="Group 1932">
          <path id="Path_5354" data-name="Path 5354" class="cls-1" d="M374.895,233.437c.05-.154.1-.308.156-.461C375,233.129,374.945,233.282,374.895,233.437Z" transform="translate(-374.895 -232.976)"/>
        </g>
      </g>
      <g id="Group_1935" data-name="Group 1935" transform="translate(27.389 18.317)">
        <g id="Group_1934" data-name="Group 1934">
          <path id="Path_5355" data-name="Path 5355" class="cls-1" d="M370.6,248.366c.039-.148.08-.3.122-.442C370.684,248.071,370.643,248.218,370.6,248.366Z" transform="translate(-370.604 -247.924)"/>
        </g>
      </g>
      <g id="Group_1937" data-name="Group 1937" transform="translate(10.441 28.69)">
        <g id="Group_1936" data-name="Group 1936">
          <path id="Path_5356" data-name="Path 5356" class="cls-1" d="M141.277,388.33q-.041.167-.085.334Q141.236,388.5,141.277,388.33Z" transform="translate(-141.192 -388.33)"/>
        </g>
      </g>
      <g id="Group_1939" data-name="Group 1939" transform="translate(10.531 28.352)">
        <g id="Group_1938" data-name="Group 1938">
          <path id="Path_5357" data-name="Path 5357" class="cls-1" d="M142.484,383.765q-.036.16-.076.318Q142.447,383.925,142.484,383.765Z" transform="translate(-142.408 -383.765)"/>
        </g>
      </g>
      <g id="Group_1941" data-name="Group 1941" transform="translate(10.352 29.025)">
        <g id="Group_1940" data-name="Group 1940">
          <path id="Path_5358" data-name="Path 5358" class="cls-1" d="M140.074,392.87q-.043.162-.089.324Q140.031,393.032,140.074,392.87Z" transform="translate(-139.985 -392.87)"/>
        </g>
      </g>
      <g id="Group_1943" data-name="Group 1943" transform="translate(0.017 17.965)">
        <g id="Group_1942" data-name="Group 1942">
          <path id="Path_5359" data-name="Path 5359" class="cls-1" d="M.1,243.568c0,.017,0,.035,0,.052q.006-.227.017-.452C.105,243.3.1,243.435.1,243.568Z" transform="translate(-0.095 -243.168)"/>
        </g>
      </g>
      <g id="Group_1946" data-name="Group 1946" transform="translate(0.035 8.036)">
        <g id="Group_1945" data-name="Group 1945">
          <g id="Group_1944" data-name="Group 1944">
            <path id="Path_5360" data-name="Path 5360" class="cls-1" d="M47.044,109.168q.21.167.416.339Q47.254,109.335,47.044,109.168Z" transform="translate(-43.593 -109.139)"/>
            <path id="Path_5361" data-name="Path 5361" class="cls-1" d="M46.643,108.842h0l.03.024Z" transform="translate(-43.222 -108.837)"/>
            <path id="Path_5362" data-name="Path 5362" class="cls-1" d="M3.825,108.769a18.641,18.641,0,0,0-3.408,9.805,18.8,18.8,0,0,1,3.415-9.8Z" transform="translate(-0.411 -108.769)"/>
            <path id="Path_5363" data-name="Path 5363" class="cls-1" d="M52.669,113.752l.029.025Z" transform="translate(-48.803 -113.384)"/>
            <path id="Path_5364" data-name="Path 5364" class="cls-1" d="M.336,241.592c0-.034,0-.068.006-.1,0,.029,0,.058-.005.087C.336,241.582.336,241.587.336,241.592Z" transform="translate(-0.336 -231.685)"/>
            <path id="Path_5365" data-name="Path 5365" class="cls-1" d="M64.257,124.049h0Z" transform="translate(-59.535 -122.92)"/>
            <path id="Path_5366" data-name="Path 5366" class="cls-1" d="M53.055,114.086q.205.173.406.35Q53.26,114.258,53.055,114.086Z" transform="translate(-49.16 -113.693)"/>
            <path id="Path_5367" data-name="Path 5367" class="cls-1" d="M68.593,129.947a20.2,20.2,0,0,0-4.331-5.893A20.2,20.2,0,0,1,68.593,129.947Z" transform="translate(-59.539 -122.925)"/>
            <path id="Path_5368" data-name="Path 5368" class="cls-1" d="M58.692,118.961q.208.185.411.376Q58.9,119.146,58.692,118.961Z" transform="translate(-54.381 -118.208)"/>
            <path id="Path_5369" data-name="Path 5369" class="cls-1" d="M58.544,118.826l.011.01Z" transform="translate(-54.244 -118.083)"/>
          </g>
        </g>
      </g>
      <g id="Group_1948" data-name="Group 1948" transform="translate(26.882 26.299)">
        <g id="Group_1947" data-name="Group 1947">
          <path id="Path_5370" data-name="Path 5370" class="cls-1" d="M363.765,356.214c-.011-.082-.022-.164-.032-.246C363.743,356.05,363.754,356.132,363.765,356.214Z" transform="translate(-363.733 -355.968)"/>
        </g>
      </g>
      <g id="Group_1950" data-name="Group 1950" transform="translate(10.932 26.299)">
        <g id="Group_1949" data-name="Group 1949">
          <path id="Path_5371" data-name="Path 5371" class="cls-1" d="M147.869,355.968c-.01.082-.021.164-.032.246C147.848,356.132,147.859,356.05,147.869,355.968Z" transform="translate(-147.837 -355.968)"/>
        </g>
      </g>
      <g id="Group_1952" data-name="Group 1952" transform="translate(10.882 26.644)">
        <g id="Group_1951" data-name="Group 1951">
          <path id="Path_5372" data-name="Path 5372" class="cls-1" d="M147.192,360.648c-.012.085-.025.169-.037.253C147.168,360.817,147.181,360.732,147.192,360.648Z" transform="translate(-147.155 -360.648)"/>
        </g>
      </g>
      <g id="Group_1954" data-name="Group 1954" transform="translate(10.82 26.989)">
        <g id="Group_1953" data-name="Group 1953">
          <path id="Path_5373" data-name="Path 5373" class="cls-1" d="M146.374,365.31q-.023.145-.048.289C146.342,365.5,146.359,365.407,146.374,365.31Z" transform="translate(-146.326 -365.31)"/>
        </g>
      </g>
      <g id="Group_1956" data-name="Group 1956" transform="translate(10.686 27.674)">
        <g id="Group_1955" data-name="Group 1955">
          <path id="Path_5374" data-name="Path 5374" class="cls-1" d="M144.568,374.581q-.03.158-.063.315C144.527,374.791,144.548,374.686,144.568,374.581Z" transform="translate(-144.505 -374.581)"/>
        </g>
      </g>
      <g id="Group_1958" data-name="Group 1958" transform="translate(10.761 27.332)">
        <g id="Group_1957" data-name="Group 1957">
          <path id="Path_5375" data-name="Path 5375" class="cls-1" d="M145.568,369.951c-.016.093-.033.186-.051.278C145.534,370.137,145.552,370.044,145.568,369.951Z" transform="translate(-145.517 -369.951)"/>
        </g>
      </g>
      <g id="Group_1960" data-name="Group 1960" transform="translate(10.61 28.014)">
        <g id="Group_1959" data-name="Group 1959">
          <path id="Path_5376" data-name="Path 5376" class="cls-1" d="M143.544,379.181q-.034.163-.071.325Q143.51,379.344,143.544,379.181Z" transform="translate(-143.473 -379.181)"/>
        </g>
      </g>
      <g id="Group_1962" data-name="Group 1962" transform="translate(0.018 19.449)">
        <g id="Group_1961" data-name="Group 1961">
          <path id="Path_5377" data-name="Path 5377" class="cls-1" d="M.109,263.251h0c0,.071.005.142.008.213C.114,263.393.111,263.322.109,263.251Z" transform="translate(-0.109 -263.251)"/>
        </g>
      </g>
      <g id="Group_1964" data-name="Group 1964" transform="translate(27.165 28.014)">
        <g id="Group_1963" data-name="Group 1963">
          <path id="Path_5378" data-name="Path 5378" class="cls-1" d="M367.635,379.506q-.037-.162-.071-.325Q367.6,379.344,367.635,379.506Z" transform="translate(-367.564 -379.181)"/>
        </g>
      </g>
      <g id="Group_1966" data-name="Group 1966" transform="translate(27.034 27.332)">
        <g id="Group_1965" data-name="Group 1965">
          <path id="Path_5379" data-name="Path 5379" class="cls-1" d="M365.845,370.23c-.017-.093-.035-.185-.051-.278C365.81,370.045,365.827,370.138,365.845,370.23Z" transform="translate(-365.794 -369.952)"/>
        </g>
      </g>
      <g id="Group_1968" data-name="Group 1968" transform="translate(26.977 26.989)">
        <g id="Group_1967" data-name="Group 1967">
          <path id="Path_5380" data-name="Path 5380" class="cls-1" d="M365.075,365.6c-.017-.1-.033-.193-.048-.29Q365.05,365.456,365.075,365.6Z" transform="translate(-365.027 -365.311)"/>
        </g>
      </g>
      <g id="Group_1970" data-name="Group 1970" transform="translate(26.927 26.644)">
        <g id="Group_1969" data-name="Group 1969">
          <path id="Path_5381" data-name="Path 5381" class="cls-1" d="M364.376,360.9c-.013-.084-.026-.169-.037-.253C364.351,360.732,364.364,360.817,364.376,360.9Z" transform="translate(-364.339 -360.648)"/>
        </g>
      </g>
      <g id="Group_1972" data-name="Group 1972" transform="translate(27.097 27.674)">
        <g id="Group_1971" data-name="Group 1971">
          <path id="Path_5382" data-name="Path 5382" class="cls-1" d="M366.7,374.894q-.033-.157-.063-.315Q366.671,374.737,366.7,374.894Z" transform="translate(-366.641 -374.579)"/>
        </g>
      </g>
      <g id="Group_1974" data-name="Group 1974" transform="translate(27.239 28.352)">
        <g id="Group_1973" data-name="Group 1973">
          <path id="Path_5383" data-name="Path 5383" class="cls-1" d="M368.643,384.083q-.039-.159-.076-.318Q368.6,383.925,368.643,384.083Z" transform="translate(-368.567 -383.765)"/>
        </g>
      </g>
      <g id="Group_1976" data-name="Group 1976" transform="translate(0.065 20.346)">
        <g id="Group_1975" data-name="Group 1975">
          <path id="Path_5384" data-name="Path 5384" class="cls-1" d="M.745,275.388c0,.038.005.075.008.113.01.122.02.245.033.367l0,.046Q.764,275.652.745,275.388Z" transform="translate(-0.745 -275.388)"/>
        </g>
      </g>
      <g id="Group_1979" data-name="Group 1979" transform="translate(0.112 20.879)">
        <g id="Group_1978" data-name="Group 1978">
          <g id="Group_1977" data-name="Group 1977">
            <path id="Path_5385" data-name="Path 5385" class="cls-1" d="M1.379,282.61a18.752,18.752,0,0,0,8,13.553l.005-.009A18.923,18.923,0,0,1,1.379,282.61Z" transform="translate(-1.379 -282.61)"/>
            <path id="Path_5386" data-name="Path 5386" class="cls-1" d="M109.7,465.837l0,.008h0Z" transform="translate(-101.691 -452.301)"/>
            <path id="Path_5387" data-name="Path 5387" class="cls-1" d="M109.76,402.447a19.971,19.971,0,0,0,2.23-5.057A19.976,19.976,0,0,1,109.76,402.447Z" transform="translate(-101.753 -388.91)"/>
          </g>
        </g>
      </g>
      <g id="Group_1981" data-name="Group 1981" transform="translate(27.405 29.025)">
        <g id="Group_1980" data-name="Group 1980">
          <path id="Path_5388" data-name="Path 5388" class="cls-1" d="M370.9,393.194q-.046-.162-.089-.324Q370.855,393.032,370.9,393.194Z" transform="translate(-370.812 -392.87)"/>
        </g>
      </g>
      <g id="Group_1983" data-name="Group 1983" transform="translate(27.319 28.69)">
        <g id="Group_1982" data-name="Group 1982">
          <path id="Path_5389" data-name="Path 5389" class="cls-1" d="M369.736,388.664q-.044-.167-.085-.334Q369.692,388.5,369.736,388.664Z" transform="translate(-369.651 -388.33)"/>
        </g>
      </g>
      <g id="Group_1986" data-name="Group 1986" transform="translate(-1 0.001)">
        <g id="Group_1985" data-name="Group 1985">
          <g id="Group_1984" data-name="Group 1984">
            <path id="Path_5390" data-name="Path 5390" class="cls-1" d="M95.45,6.122a18.882,18.882,0,0,0-27.835,0A22.616,22.616,0,0,1,72.833,35.7a18.883,18.883,0,0,0,17.4,0A22.616,22.616,0,0,1,95.45,6.122Z" transform="translate(-61.61 -0.001)"/>
            <path id="Path_5391" data-name="Path 5391" class="cls-1" d="M8.813,126.928q.039-.138.076-.276h0q.038-.142.073-.285l0-.016q.033-.135.064-.271l0-.012q.031-.138.061-.277l0-.021q.028-.134.054-.268l.01-.054c.015-.079.03-.158.043-.237l.007-.045q.021-.123.041-.247c0-.026.008-.052.011-.078.011-.072.022-.144.032-.216,0-.028.007-.057.011-.085.009-.07.019-.139.027-.209,0-.03.007-.06.01-.09.008-.069.016-.137.023-.206,0-.035.007-.07.01-.1.006-.064.013-.128.018-.192,0-.045.007-.09.01-.135s.009-.108.013-.163.006-.1.009-.154.006-.1.009-.144,0-.107.007-.16,0-.093.006-.14,0-.1,0-.154,0-.1,0-.146q0-.15,0-.3,0-.247-.007-.492c0-.076-.007-.152-.01-.228s-.006-.175-.011-.262-.011-.157-.017-.235-.011-.169-.018-.252-.019-.2-.03-.294c-.007-.064-.012-.128-.019-.191-.011-.091-.023-.182-.035-.273-.009-.07-.017-.14-.027-.21-.014-.1-.031-.2-.048-.3-.01-.059-.018-.119-.028-.178-.018-.106-.039-.212-.06-.318-.01-.053-.019-.106-.03-.159-.025-.124-.053-.248-.081-.371-.008-.034-.014-.068-.022-.1-.028-.119-.058-.238-.088-.356-.01-.037-.018-.075-.028-.113-.033-.126-.068-.252-.1-.377-.008-.029-.016-.059-.024-.088-.038-.131-.079-.262-.12-.392l-.021-.069c-.042-.132-.087-.262-.133-.393l-.021-.063c-.048-.136-.1-.272-.15-.406l-.016-.044q-.083-.214-.171-.426l-.008-.02q-.09-.215-.185-.427l-.006-.014q-.1-.216-.2-.428l0-.007a17.206,17.206,0,0,0-4.806-5.984,15.888,15.888,0,0,0-2.91,8.442v.019h0q-.009.192-.014.386c0,.013,0,.027,0,.04H0c0,.127,0,.255,0,.383,0,.153,0,.3.007.456,0,.061,0,.121.007.182h0c0,.087.007.174.012.26h0c0,.082.01.164.016.246h0c0,.025,0,.05.006.075q.017.225.039.448v.007A15.979,15.979,0,0,0,6.9,131.261a17.019,17.019,0,0,0,1.909-4.323Z" transform="translate(0 -98.785)"/>
            <path id="Path_5392" data-name="Path 5392" class="cls-1" d="M367.981,108.771a16.447,16.447,0,0,0-4.593,5.72l0,.006q-.1.2-.192.409l-.006.013q-.091.2-.177.408l-.008.019q-.084.2-.164.407l-.016.042c-.049.129-.1.258-.144.388l-.02.06c-.044.125-.086.25-.127.375-.007.022-.013.044-.02.066-.04.124-.078.249-.115.374-.008.028-.015.056-.023.084-.034.12-.068.24-.1.36-.009.036-.017.072-.027.108-.029.113-.058.227-.084.341-.008.032-.014.065-.021.1-.027.118-.053.236-.077.355-.01.05-.019.1-.029.152-.019.1-.039.2-.057.3-.01.056-.018.113-.027.17-.016.1-.032.192-.046.288-.01.067-.017.134-.026.2-.011.087-.024.174-.034.261-.007.061-.012.122-.018.183-.01.094-.02.187-.028.281s-.012.161-.017.241-.012.15-.016.225-.007.167-.011.251-.007.145-.009.218q-.007.235-.007.47,0,.144,0,.288c0,.047,0,.093,0,.14s0,.1,0,.147,0,.089.006.133,0,.1.007.153.006.092.008.138.005.1.009.147.008.1.012.155.006.086.01.129c.005.061.011.122.017.184,0,.033.006.067.009.1.007.066.014.131.022.2,0,.029.006.057.01.086.008.067.017.133.026.2,0,.027.007.054.011.082.01.069.02.138.03.206,0,.025.007.05.011.074q.018.118.039.236c0,.014,0,.029.007.043.013.076.027.151.041.227l.009.052q.025.128.051.256l0,.021q.028.133.058.264l0,.011q.03.13.062.259l0,.015q.034.136.07.272h0q.035.132.072.264l0,.008a16.269,16.269,0,0,0,1.825,4.133,15.274,15.274,0,0,0,6.513-11.039h0l0-.044h0q.035-.347.054-.7h0c0-.083.008-.166.011-.249h0c0-.058.005-.116.007-.174,0-.145.007-.29.007-.436A15.217,15.217,0,0,0,367.981,108.771Z" transform="translate(-330.782 -97.78)"/>
          </g>
        </g>
      </g>
    </g>
    <rect id="Rectangle_3579" data-name="Rectangle 3579" class="cls-2" width="56" height="56" transform="translate(650 -17422)"/>
  </g>
</svg>
