<svg xmlns="http://www.w3.org/2000/svg" width="68" height="68" viewBox="0 0 68 68">
  <g id="Group_3218" data-name="Group 3218" transform="translate(-6638 136)">
    <g id="trophy" transform="translate(6640 -135)">
      <path id="Path_5914" data-name="Path 5914" d="M57.328,3.665V0H10.055V3.665H0V12.87A15.319,15.319,0,0,0,12.323,27.891,23.677,23.677,0,0,0,28.48,40.836v4.451H17.7V55.7H49.641V45.287H38.857v-4.44a23.688,23.688,0,0,0,16.2-12.956A15.319,15.319,0,0,0,67.382,12.87V3.665ZM4.155,12.87V7.819h5.9v9.957A23.755,23.755,0,0,0,10.634,23,11.172,11.172,0,0,1,4.155,12.87ZM39.682,26.9,33.691,23.75,27.7,26.9l1.144-6.671L24,15.5l6.7-.973,3-6.07,3,6.07,6.7.973L38.538,20.23ZM63.227,12.87A11.17,11.17,0,0,1,56.747,23a23.69,23.69,0,0,0,.58-5.221V7.819h5.9Zm0,0" fill="#fff"/>
      <path id="Path_5915" data-name="Path 5915" d="M56.941,432.172h51.564v11.056H56.941Zm0,0" transform="translate(-49.055 -372.32)" fill="#fff"/>
    </g>
    <rect id="Rectangle_4268" data-name="Rectangle 4268" width="72" height="72" transform="translate(6638 -136)" fill="none"/>
  </g>
</svg>
