<svg xmlns="http://www.w3.org/2000/svg" width="348" height="64" viewBox="0 0 348 64">
  <defs>
    <style>
      .cls-1, .cls-2 {
        fill: #fff;
      }

      .cls-1 {
        font-size: 15px;
        font-family: Prompt-Bold, Prompt;
        font-weight: 700;
        letter-spacing: 0.02em;
      }
    </style>
  </defs>
  <g id="Group_2257" data-name="Group 2257" transform="translate(-42 17558)">
    <text id="Óbuda_Mozgásművészeti_Iskola" data-name="Óbuda 
Mozgásművészeti
Iskola" class="cls-1" transform="translate(256 -17538)"><tspan x="0" y="0">Óbuda </tspan><tspan x="0" y="19">Mozgásművészeti</tspan><tspan x="0" y="38">Iskola</tspan></text>
    <g id="Group_2256" data-name="Group 2256" transform="translate(42 -17558)">
      <path id="Path_15" data-name="Path 15" class="cls-2" d="M511,705.261c.352-.654.189-1.437.566-2.184a21.554,21.554,0,0,0,2.371,3.128,18.848,18.848,0,0,0,13.861,6.4c2.227.045,4.363-.481,5.672-2.638a5.229,5.229,0,1,0-9.621-1.981c.035.224.056.451.083.671-.23.182-.42.014-.584-.044a16.769,16.769,0,0,1-10.013-9.136,1.2,1.2,0,0,1,.071-1.278c3.92-6.222,9.506-9.345,16.893-8.931a18.024,18.024,0,1,1-18.846,22.027,5.754,5.754,0,0,0-.452-1.888Z" transform="translate(-511 -667.044)"/>
      <path id="Path_16" data-name="Path 16" class="cls-2" d="M1141.347,719.108c-.28.173-.224.491-.3.743a6.29,6.29,0,0,1-9.146,3.727c-2.827-1.587-5.539-3.377-8.3-5.076-.213-.13-.434-.249-.731-.418a6.626,6.626,0,0,1-1.8,3.6,6.088,6.088,0,0,1-6.919,1.427,5.832,5.832,0,0,1-3.958-5.435c-.125-2.911-.038-5.83-.057-8.746a1.045,1.045,0,0,1,.367-.8q6.023-6.022,12.038-12.052a2.8,2.8,0,0,1,.477-.375c2.692-1.718,5.426-3.376,8.072-5.162a6.391,6.391,0,0,1,10.154,4.066c0,.035.071.063.108.094v2c-.6,2.585-2.377,4.139-4.56,5.428-2.283,1.348-4.481,2.839-6.711,4.276a1.83,1.83,0,0,0-.731.581c.24.159.466.317.7.461q3.969,2.454,7.944,4.9a6.463,6.463,0,0,1,3.205,4.533c.018.1.037.2.152.232Z" transform="translate(-959.472 -667.078)"/>
      <path id="Path_17" data-name="Path 17" class="cls-2" d="M902.875,724.911a10.167,10.167,0,0,1-2.73-1.118,6.166,6.166,0,0,1-2.773-5.121q-.056-12.422,0-24.845a6.366,6.366,0,0,1,12.728-.033q.075,12.461,0,24.922a6.225,6.225,0,0,1-4.966,6.023c-.195.044-.415,0-.573.171Z" transform="translate(-800.196 -665.821)"/>
      <path id="Path_18" data-name="Path 18" class="cls-2" d="M1117.414,601a7.337,7.337,0,0,1,3.9,2.37,6.341,6.341,0,0,1,1.43,4.034c.023,5.52.009,11.042.018,16.562a.95.95,0,0,1-.3.737q-6.075,6.069-12.137,12.152a2.474,2.474,0,0,1-.23.184c-.245-.159-.141-.384-.141-.568q-.011-14.377-.006-28.754a6.43,6.43,0,0,1,4.926-6.564,1.062,1.062,0,0,0,.242-.153Z" transform="translate(-959.328 -601)"/>
      <path id="Path_19" data-name="Path 19" class="cls-2" d="M661.8,704.49q0-5.562,0-11.125a6.191,6.191,0,0,1,3.733-6.088,6.1,6.1,0,0,1,6.98,1.084.922.922,0,0,0,1.041.129,17.034,17.034,0,0,1,13.506,1.2,14.038,14.038,0,0,1,2,1.277.943.943,0,0,0,1.371.025,16.71,16.71,0,0,1,11.832-3.289,17.1,17.1,0,0,1,14.75,12.388,13.379,13.379,0,0,1,.438,6.584,8.388,8.388,0,0,0-.05,1.758c-.008,2.686.045,5.372-.027,8.056a6.375,6.375,0,0,1-12.746-.245c-.03-3.99-.007-7.979-.007-11.969a3.814,3.814,0,0,0-3.638-3.858,4.536,4.536,0,0,0-4.816,4.289c-.424,3.776-.2,7.551-.282,11.325a6.383,6.383,0,1,1-12.763-.089c-.013-3.785-.138-7.577.048-11.353a4.278,4.278,0,0,0-4.478-4.179,4.393,4.393,0,0,0-4.1,4.511c-.015,3.631-.023,7.263,0,10.895a6.271,6.271,0,0,1-2.63,5.428,6.374,6.374,0,0,1-10.145-5.167C661.769,712.215,661.8,708.352,661.8,704.49Z" transform="translate(-623.875 -665.101)"/>
      <path id="Path_20" data-name="Path 20" class="cls-2" d="M988.627,692.512a6.392,6.392,0,1,1,.6,12.768c-2.39.129-4.052,1.391-4.457,3.476a24.75,24.75,0,0,0-.2,2.671,17.214,17.214,0,0,1-15.792,15.333,7.35,7.35,0,0,1-4.834-1.056,6.471,6.471,0,0,1-2.547-7.1,6.365,6.365,0,0,1,5.889-4.581,4.459,4.459,0,0,0,4.3-2.763,4.78,4.78,0,0,0,.347-1.948,17.1,17.1,0,0,1,14.709-16.663A16.768,16.768,0,0,1,988.627,692.512Z" transform="translate(-847.957 -669.499)"/>
      <path id="Path_21" data-name="Path 21" class="cls-2" d="M906.915,630.18a6.389,6.389,0,1,1,6.446-6.412A6.424,6.424,0,0,1,906.915,630.18Z" transform="translate(-802.599 -613.277)"/>
    </g>
  </g>
</svg>
