<svg xmlns="http://www.w3.org/2000/svg" width="111.819" height="112" viewBox="0 0 111.819 112"><defs><style>.a{fill:#fff;}</style></defs><circle class="a" cx="1.836" cy="1.836" r="1.836" transform="translate(9.845 80.958)"/><path class="a" d="M218.889,225.581l6.665-21.25-3.638-1.131-6.207.214-.092,3.914,4.342.122L214.7,224.267Z" transform="translate(-165.323 -175.574)"/><path class="a" d="M263.884,225.089a7.367,7.367,0,0,0-.489-5.993,8.9,8.9,0,0,0-11.13-3.486,7.38,7.38,0,0,0-3.791,4.647,7.618,7.618,0,0,0,.4,5.932,7.967,7.967,0,0,0,4.739,3.791l-6.91,5.442,4.8,1.5L261.254,229h-.031A7.759,7.759,0,0,0,263.884,225.089Zm-4.158-1.315a3.716,3.716,0,1,1-2.507-4.525A3.5,3.5,0,0,1,259.725,223.774Z" transform="translate(-184.538 -182.643)"/><path class="a" d="M318.784,242.289a7.367,7.367,0,0,0-.489-5.993,8.9,8.9,0,0,0-11.13-3.486,7.38,7.38,0,0,0-3.791,4.647,7.619,7.619,0,0,0,.4,5.932,7.967,7.967,0,0,0,4.739,3.791l-6.91,5.442,4.8,1.5,9.754-7.919h-.031A7.574,7.574,0,0,0,318.784,242.289ZM314.625,241a3.716,3.716,0,1,1-2.507-4.525A3.416,3.416,0,0,1,314.625,241Z" transform="translate(-266.41 -180.002)"/><path class="a" d="M357.611,268.3a7.843,7.843,0,0,0,5.32,4.984,7.729,7.729,0,0,0,7.185-1.04,16.233,16.233,0,0,0,5.045-16.052,7.614,7.614,0,0,0-5.29-4.984,7.765,7.765,0,0,0-7.216,1.07,16.154,16.154,0,0,0-5.045,16.022Zm4.495-7.43c1.406-4.525,3.669-6.513,6.513-5.626,2.813.887,3.577,3.822,2.14,8.347-1.406,4.495-3.7,6.482-6.513,5.6C361.4,268.268,360.669,265.394,362.106,260.869Z" transform="translate(-304.902 -193.016)"/><path class="a" d="M183.04,117.118a4.87,4.87,0,0,0,3.749-.561,4.931,4.931,0,0,0-1.25-9.029,4.859,4.859,0,0,0-3.749.536,4.764,4.764,0,0,0-2.3,3.01,5.028,5.028,0,0,0,3.545,6.045Zm-1.25-5.458a2.5,2.5,0,0,1,1.2-1.556,2.622,2.622,0,0,1,1.938-.306,2.419,2.419,0,0,1,1.556,1.2,2.468,2.468,0,0,1-.893,3.494,2.622,2.622,0,0,1-1.938.306,2.478,2.478,0,0,1-1.556-1.224A2.316,2.316,0,0,1,181.79,111.66Z" transform="translate(-154.32 -100.384)"/><path class="a" d="M225.374,95.3l-1.428-4.872,3.265,2.984.23-.077,1.122-4.26,1.428,4.872,2.3-.689L229.633,84.2l-2.3.689-1.173,4.54-3.443-3.188-2.321.689,2.678,9.029Z" transform="translate(-184.921 -83.127)"/><rect class="a" width="2.423" height="9.437" transform="translate(48.654 0.617) rotate(-6.131)"/><path class="a" d="M296.4,87.544a1.83,1.83,0,0,1-1.811-1.326L292.5,87.34a3.786,3.786,0,0,0,3.775,2.474,4.1,4.1,0,0,0,2.627-.689,2.555,2.555,0,0,0,1.046-2.143,2.282,2.282,0,0,0-.918-2.091,5.883,5.883,0,0,0-.893-.536c-.281-.128-.638-.255-1.1-.408-1.275-.408-1.607-.663-1.581-1.071,0-.357.306-.612.893-.587a1.507,1.507,0,0,1,1.428,1.1l2.066-1.122a3.649,3.649,0,0,0-3.418-2.27,3.478,3.478,0,0,0-2.372.74,2.626,2.626,0,0,0-.995,2.091c-.051,1.607.995,2.474,2.7,3.035.612.2.995.332,1.173.408q.612.268.612.689C297.5,87.366,297.142,87.57,296.4,87.544Z" transform="translate(-238.631 -79.993)"/><path class="a" d="M331.09,88.737,332.8,93.43l2.627.612-1.964-5.433,3.928-3.775-2.627-.612-3.392,3.29.893-3.877-2.347-.536L327.8,92.308l2.347.536Z" transform="translate(-264.928 -82.307)"/><path class="a" d="M410.767,134.828a4.722,4.722,0,0,0,3.6,1.148,4.773,4.773,0,0,0,3.341-1.76,4.7,4.7,0,0,0,1.122-3.6,4.967,4.967,0,0,0-9.9.867A5.074,5.074,0,0,0,410.767,134.828Zm1.173-5.407a2.483,2.483,0,0,1,1.734-.944,2.436,2.436,0,0,1,1.862.612,2.527,2.527,0,0,1,.944,1.734,2.371,2.371,0,0,1-.612,1.862,2.483,2.483,0,0,1-1.734.944,2.575,2.575,0,0,1-1.862-.612,2.527,2.527,0,0,1-.944-1.709A2.6,2.6,0,0,1,411.94,129.42Z" transform="translate(-325.347 -114.344)"/><path class="a" d="M437.528,162.524l4.081-2.984L439.9,163.6l.153.2,4.413-.383L440.36,166.4l1.428,1.938,7.6-5.56-1.428-1.938-4.668.434,1.836-4.311L443.7,155l-7.6,5.586Z" transform="translate(-345.604 -135.869)"/><rect class="a" width="9.437" height="2.423" transform="translate(97.082 34.59) rotate(-26.053)"/><path class="a" d="M475.866,226.588c.026.638.026,1.046.026,1.25-.051.459-.179.714-.459.816-.408.128-.714-.153-.944-.867a1.839,1.839,0,0,1,.612-2.142l-1.76-1.607a3.739,3.739,0,0,0-1.046,4.387,4.217,4.217,0,0,0,1.53,2.245,2.657,2.657,0,0,0,2.372.281,2.282,2.282,0,0,0,1.658-1.556,4.242,4.242,0,0,0,.2-1.02c.025-.306.025-.689.025-1.173-.025-1.326.077-1.734.485-1.862.357-.1.689.1.867.638a1.487,1.487,0,0,1-.561,1.709l1.734,1.556a3.656,3.656,0,0,0,.969-4,3.515,3.515,0,0,0-1.479-1.989,2.588,2.588,0,0,0-2.3-.23C476.274,223.5,475.815,224.8,475.866,226.588Z" transform="translate(-372.363 -186.414)"/><path class="a" d="M479.681,263.42l4.183-.51-3.851,3.188.306,2.678,4.464-3.673,4.9,2.423-.332-2.678-4.234-2.091,3.953-.459-.306-2.4-9.361,1.122Z" transform="translate(-377.86 -214.013)"/><path class="a" d="M476.033,348.84a4.633,4.633,0,0,0-3.775.153,4.964,4.964,0,1,0,6.734,6.2,4.693,4.693,0,0,0-.153-3.8A4.63,4.63,0,0,0,476.033,348.84Zm.714,5.509a2.457,2.457,0,0,1-1.3,1.454,2.39,2.39,0,0,1-1.964.051A2.465,2.465,0,0,1,472,354.527a2.493,2.493,0,0,1-.051-1.964,2.457,2.457,0,0,1,1.3-1.454,2.552,2.552,0,0,1,1.99-.051,2.505,2.505,0,0,1,1.479,1.3A2.683,2.683,0,0,1,476.747,354.349Z" transform="translate(-370.412 -280.022)"/><path class="a" d="M444.63,387.689l4.208,2.857-4.413-.23-.127.2,1.862,4-4.208-2.831-1.352,1.964,7.8,5.305,1.352-1.989-1.989-4.26,4.693.281,1.352-2.015-7.83-5.28Z" transform="translate(-348.957 -307.726)"/><rect class="a" width="2.423" height="9.437" transform="matrix(0.697, -0.717, 0.717, 0.697, 88.295, 89.213)"/><path class="a" d="M408.5,443.024c-.587.229-.969.383-1.173.434q-.65.191-.918-.153c-.255-.332-.1-.714.485-1.173a1.918,1.918,0,0,1,2.245-.153l.893-2.219a3.764,3.764,0,0,0-4.489.51,4.076,4.076,0,0,0-1.581,2.219,2.621,2.621,0,0,0,.536,2.321,2.235,2.235,0,0,0,2.04,1.02,5.688,5.688,0,0,0,1.046-.153,8.2,8.2,0,0,0,1.1-.383c1.25-.485,1.658-.51,1.913-.179.23.281.153.663-.306,1.02a1.565,1.565,0,0,1-1.811.077l-.867,2.168a3.643,3.643,0,0,0,4.081-.434,3.337,3.337,0,0,0,1.352-2.066,2.683,2.683,0,0,0-.561-2.245C411.511,442.387,410.16,442.361,408.5,443.024Z" transform="translate(-321.602 -347.604)"/><path class="a" d="M371.621,457.1l1.887,3.775L369.2,458.3l-2.4,1.224,4.974,2.933-.638,5.433,2.423-1.2.51-4.693,1.785,3.52L378,464.443,373.789,456Z" transform="translate(-293.98 -360.095)"/><path class="a" d="M285.122,480.6a4.878,4.878,0,0,0-5.025,4.821,4.878,4.878,0,0,0,4.846,5,4.784,4.784,0,0,0,3.545-1.377,4.989,4.989,0,0,0,.1-6.989A4.9,4.9,0,0,0,285.122,480.6Zm1.709,6.785a2.551,2.551,0,0,1-4.336-1.913,2.425,2.425,0,0,1,.765-1.836,2.564,2.564,0,0,1,1.836-.689,2.447,2.447,0,0,1,2.5,2.6A2.534,2.534,0,0,1,286.831,487.382Z" transform="translate(-229.391 -378.418)"/><path class="a" d="M236.36,477.957l-1.275-4.208-.23-.051-3.163,3.112,1.25-4.923-2.321-.587-2.321,9.131,2.321.587,3.341-3.316,1.326,4.489,2.347.612,2.3-9.157-2.321-.587Z" transform="translate(-190.806 -371.493)"/><rect class="a" width="9.437" height="2.423" transform="translate(31.686 106.325) rotate(-65.506)"/><path class="a" d="M179.459,452.23c-.255-.383-.332-.663-.179-.918.23-.357.638-.332,1.275.051a1.9,1.9,0,0,1,.893,2.066l2.372.1a3.757,3.757,0,0,0-1.989-4.055,3.9,3.9,0,0,0-2.6-.74,2.521,2.521,0,0,0-1.989,1.3,2.26,2.26,0,0,0-.281,2.27,6.006,6.006,0,0,0,.485.918c.179.255.408.561.714.918.867,1.02,1.046,1.377.816,1.734-.2.306-.587.357-1.071.051a1.505,1.505,0,0,1-.663-1.683l-2.347-.1a3.666,3.666,0,0,0,1.785,3.7,3.489,3.489,0,0,0,2.4.587,2.623,2.623,0,0,0,1.913-1.275c.867-1.352.408-2.653-.765-4C179.842,452.715,179.561,452.383,179.459,452.23Z" transform="translate(-150.995 -354.668)"/><path class="a" d="M147.9,423.324,145,426.359l.944-4.9L144,419.6l-1.1,5.662-5.305,1.25,1.938,1.862,4.591-1.1-2.729,2.857,1.76,1.683,6.5-6.836Z" transform="translate(-123.24 -332.98)"/><path class="a" d="M96.485,338.77a4.924,4.924,0,0,0,.485-3.749,4.9,4.9,0,0,0-6.019-3.545,4.911,4.911,0,0,0-3.494,6.045,4.754,4.754,0,0,0,2.27,3.035,4.679,4.679,0,0,0,3.749.485A4.856,4.856,0,0,0,96.485,338.77Zm-2.04-1.224a2.544,2.544,0,0,1-1.607,1.173,2.486,2.486,0,0,1-3.137-1.811,2.475,2.475,0,0,1,1.811-3.112,2.6,2.6,0,0,1,1.964.23,2.457,2.457,0,0,1,1.148,1.581A2.239,2.239,0,0,1,94.444,337.546Z" transform="translate(-85.747 -267.199)"/><path class="a" d="M90.839,290.193l-5.076.1,3.749-2.347v-.255l-3.826-2.219,5.076-.077-.051-2.4-9.412.153.026,2.4,4.081,2.347-4,2.449.051,2.423,9.412-.153Z" transform="translate(-81.3 -231.221)"/><rect class="a" width="2.423" height="9.437" transform="translate(0.621 48.031) rotate(-80.607)"/><path class="a" d="M92.364,229.283c1.53.485,2.653-.281,3.673-1.785.357-.536.587-.867.714-1.02.306-.357.561-.485.842-.408.408.128.485.536.281,1.25a1.939,1.939,0,0,1-1.76,1.4l.51,2.321a3.757,3.757,0,0,0,3.392-2.959,4.107,4.107,0,0,0,.051-2.7,2.613,2.613,0,0,0-1.76-1.581,2.341,2.341,0,0,0-2.27.306,5.322,5.322,0,0,0-.765.714,7.03,7.03,0,0,0-.689.944c-.74,1.1-1.071,1.352-1.454,1.224-.357-.1-.51-.459-.332-1.02a1.47,1.47,0,0,1,1.454-1.071l-.51-2.3a3.681,3.681,0,0,0-3.112,2.678,3.571,3.571,0,0,0,.051,2.474A2.534,2.534,0,0,0,92.364,229.283Z" transform="translate(-88.104 -186.226)"/><path class="a" d="M111.137,189.431l-3.7-2.015,5-.357,1.275-2.347-5.739.408-2.6-4.821-1.275,2.372,2.245,4.157-3.494-1.913-1.148,2.117,8.264,4.515Z" transform="translate(-96.497 -154.716)"/><circle class="a" cx="1.836" cy="1.836" r="1.836" transform="translate(17.37 18.953)"/><circle class="a" cx="1.836" cy="1.836" r="1.836" transform="translate(76.467 7.858)"/><circle class="a" cx="1.836" cy="1.836" r="1.836" transform="translate(105.162 60.273)"/><circle class="a" cx="1.836" cy="1.836" r="1.836" transform="translate(67.234 103.888)"/></svg>