<svg xmlns="http://www.w3.org/2000/svg" width="32" height="32" viewBox="0 0 32 32">
  <defs>
    <style>
      .cls-1 {
        fill: #fff;
        stroke: #fff;
        stroke-width: 0.3px;
      }

      .cls-2 {
        fill: none;
      }
    </style>
  </defs>
  <g id="Group_2263" data-name="Group 2263" transform="translate(36 17343)">
    <g id="youtube-2" transform="translate(-41 -17350)">
      <path id="Path_162" data-name="Path 162" class="cls-1" d="M31.469,25.5,27.3,22.376c-.021-.016-.043-.031-.065-.045A2.1,2.1,0,0,0,24,24.1v6.31a2.1,2.1,0,0,0,3.235,1.773c.022-.014.044-.029.065-.045l4.168-3.127a2.1,2.1,0,0,0,0-3.51Zm-1.233,1.806L26.1,30.41v-6.3l4.133,3.1c.024.018.049.035.074.051C30.285,27.274,30.26,27.291,30.236,27.309Z" transform="translate(-7.587 -3.793)"/>
      <path id="Path_163" data-name="Path 163" class="cls-1" d="M27.982,14H13.258A5.264,5.264,0,0,0,8,19.258v8.413a5.264,5.264,0,0,0,5.258,5.258H27.982a5.264,5.264,0,0,0,5.258-5.258V19.258A5.264,5.264,0,0,0,27.982,14Zm3.155,13.672a3.158,3.158,0,0,1-3.155,3.155H13.258A3.158,3.158,0,0,1,10.1,27.672V19.258A3.158,3.158,0,0,1,13.258,16.1H27.982a3.158,3.158,0,0,1,3.155,3.155Z"/>
    </g>
    <rect id="Rectangle_3574" data-name="Rectangle 3574" class="cls-2" width="32" height="32" transform="translate(-36 -17343)"/>
  </g>
</svg>
